%TF.GenerationSoftware,KiCad,Pcbnew,8.0.7-8.0.7-0~ubuntu22.04.1*%
%TF.CreationDate,2025-04-11T11:52:52+01:00*%
%TF.ProjectId,ratrace_coupler,72617472-6163-4655-9f63-6f75706c6572,rev?*%
%TF.SameCoordinates,Original*%
%TF.FileFunction,Legend,Top*%
%TF.FilePolarity,Positive*%
%FSLAX46Y46*%
G04 Gerber Fmt 4.6, Leading zero omitted, Abs format (unit mm)*
G04 Created by KiCad (PCBNEW 8.0.7-8.0.7-0~ubuntu22.04.1) date 2025-04-11 11:52:52*
%MOMM*%
%LPD*%
G01*
G04 APERTURE LIST*
G04 Aperture macros list*
%AMRotRect*
0 Rectangle, with rotation*
0 The origin of the aperture is its center*
0 $1 length*
0 $2 width*
0 $3 Rotation angle, in degrees counterclockwise*
0 Add horizontal line*
21,1,$1,$2,0,0,$3*%
G04 Aperture macros list end*
%ADD10C,0.150000*%
%ADD11C,0.250000*%
%ADD12C,0.120000*%
%ADD13C,0.000000*%
%ADD14RotRect,5.080000X2.290000X300.000000*%
%ADD15RotRect,5.080000X2.420000X300.000000*%
%ADD16RotRect,5.080000X2.290000X240.000000*%
%ADD17RotRect,5.080000X2.420000X240.000000*%
%ADD18R,5.080000X2.290000*%
%ADD19R,5.080000X2.420000*%
G04 APERTURE END LIST*
D10*
X102710588Y-137939223D02*
X102293922Y-137343985D01*
X101996303Y-137939223D02*
X101996303Y-136689223D01*
X101996303Y-136689223D02*
X102472493Y-136689223D01*
X102472493Y-136689223D02*
X102591541Y-136748747D01*
X102591541Y-136748747D02*
X102651064Y-136808271D01*
X102651064Y-136808271D02*
X102710588Y-136927319D01*
X102710588Y-136927319D02*
X102710588Y-137105890D01*
X102710588Y-137105890D02*
X102651064Y-137224938D01*
X102651064Y-137224938D02*
X102591541Y-137284461D01*
X102591541Y-137284461D02*
X102472493Y-137343985D01*
X102472493Y-137343985D02*
X101996303Y-137343985D01*
X103782017Y-137939223D02*
X103782017Y-137284461D01*
X103782017Y-137284461D02*
X103722493Y-137165414D01*
X103722493Y-137165414D02*
X103603445Y-137105890D01*
X103603445Y-137105890D02*
X103365350Y-137105890D01*
X103365350Y-137105890D02*
X103246303Y-137165414D01*
X103782017Y-137879700D02*
X103662969Y-137939223D01*
X103662969Y-137939223D02*
X103365350Y-137939223D01*
X103365350Y-137939223D02*
X103246303Y-137879700D01*
X103246303Y-137879700D02*
X103186779Y-137760652D01*
X103186779Y-137760652D02*
X103186779Y-137641604D01*
X103186779Y-137641604D02*
X103246303Y-137522557D01*
X103246303Y-137522557D02*
X103365350Y-137463033D01*
X103365350Y-137463033D02*
X103662969Y-137463033D01*
X103662969Y-137463033D02*
X103782017Y-137403509D01*
X104198683Y-137105890D02*
X104674874Y-137105890D01*
X104377255Y-136689223D02*
X104377255Y-137760652D01*
X104377255Y-137760652D02*
X104436778Y-137879700D01*
X104436778Y-137879700D02*
X104555826Y-137939223D01*
X104555826Y-137939223D02*
X104674874Y-137939223D01*
X105091541Y-137939223D02*
X105091541Y-137105890D01*
X105091541Y-137343985D02*
X105151064Y-137224938D01*
X105151064Y-137224938D02*
X105210588Y-137165414D01*
X105210588Y-137165414D02*
X105329636Y-137105890D01*
X105329636Y-137105890D02*
X105448683Y-137105890D01*
X106401065Y-137939223D02*
X106401065Y-137284461D01*
X106401065Y-137284461D02*
X106341541Y-137165414D01*
X106341541Y-137165414D02*
X106222493Y-137105890D01*
X106222493Y-137105890D02*
X105984398Y-137105890D01*
X105984398Y-137105890D02*
X105865351Y-137165414D01*
X106401065Y-137879700D02*
X106282017Y-137939223D01*
X106282017Y-137939223D02*
X105984398Y-137939223D01*
X105984398Y-137939223D02*
X105865351Y-137879700D01*
X105865351Y-137879700D02*
X105805827Y-137760652D01*
X105805827Y-137760652D02*
X105805827Y-137641604D01*
X105805827Y-137641604D02*
X105865351Y-137522557D01*
X105865351Y-137522557D02*
X105984398Y-137463033D01*
X105984398Y-137463033D02*
X106282017Y-137463033D01*
X106282017Y-137463033D02*
X106401065Y-137403509D01*
X107532017Y-137879700D02*
X107412969Y-137939223D01*
X107412969Y-137939223D02*
X107174874Y-137939223D01*
X107174874Y-137939223D02*
X107055826Y-137879700D01*
X107055826Y-137879700D02*
X106996303Y-137820176D01*
X106996303Y-137820176D02*
X106936779Y-137701128D01*
X106936779Y-137701128D02*
X106936779Y-137343985D01*
X106936779Y-137343985D02*
X106996303Y-137224938D01*
X106996303Y-137224938D02*
X107055826Y-137165414D01*
X107055826Y-137165414D02*
X107174874Y-137105890D01*
X107174874Y-137105890D02*
X107412969Y-137105890D01*
X107412969Y-137105890D02*
X107532017Y-137165414D01*
X108543922Y-137879700D02*
X108424874Y-137939223D01*
X108424874Y-137939223D02*
X108186779Y-137939223D01*
X108186779Y-137939223D02*
X108067732Y-137879700D01*
X108067732Y-137879700D02*
X108008208Y-137760652D01*
X108008208Y-137760652D02*
X108008208Y-137284461D01*
X108008208Y-137284461D02*
X108067732Y-137165414D01*
X108067732Y-137165414D02*
X108186779Y-137105890D01*
X108186779Y-137105890D02*
X108424874Y-137105890D01*
X108424874Y-137105890D02*
X108543922Y-137165414D01*
X108543922Y-137165414D02*
X108603446Y-137284461D01*
X108603446Y-137284461D02*
X108603446Y-137403509D01*
X108603446Y-137403509D02*
X108008208Y-137522557D01*
X110805827Y-137820176D02*
X110746303Y-137879700D01*
X110746303Y-137879700D02*
X110567732Y-137939223D01*
X110567732Y-137939223D02*
X110448684Y-137939223D01*
X110448684Y-137939223D02*
X110270113Y-137879700D01*
X110270113Y-137879700D02*
X110151065Y-137760652D01*
X110151065Y-137760652D02*
X110091542Y-137641604D01*
X110091542Y-137641604D02*
X110032018Y-137403509D01*
X110032018Y-137403509D02*
X110032018Y-137224938D01*
X110032018Y-137224938D02*
X110091542Y-136986842D01*
X110091542Y-136986842D02*
X110151065Y-136867795D01*
X110151065Y-136867795D02*
X110270113Y-136748747D01*
X110270113Y-136748747D02*
X110448684Y-136689223D01*
X110448684Y-136689223D02*
X110567732Y-136689223D01*
X110567732Y-136689223D02*
X110746303Y-136748747D01*
X110746303Y-136748747D02*
X110805827Y-136808271D01*
X111520113Y-137939223D02*
X111401065Y-137879700D01*
X111401065Y-137879700D02*
X111341542Y-137820176D01*
X111341542Y-137820176D02*
X111282018Y-137701128D01*
X111282018Y-137701128D02*
X111282018Y-137343985D01*
X111282018Y-137343985D02*
X111341542Y-137224938D01*
X111341542Y-137224938D02*
X111401065Y-137165414D01*
X111401065Y-137165414D02*
X111520113Y-137105890D01*
X111520113Y-137105890D02*
X111698684Y-137105890D01*
X111698684Y-137105890D02*
X111817732Y-137165414D01*
X111817732Y-137165414D02*
X111877256Y-137224938D01*
X111877256Y-137224938D02*
X111936780Y-137343985D01*
X111936780Y-137343985D02*
X111936780Y-137701128D01*
X111936780Y-137701128D02*
X111877256Y-137820176D01*
X111877256Y-137820176D02*
X111817732Y-137879700D01*
X111817732Y-137879700D02*
X111698684Y-137939223D01*
X111698684Y-137939223D02*
X111520113Y-137939223D01*
X113008208Y-137105890D02*
X113008208Y-137939223D01*
X112472494Y-137105890D02*
X112472494Y-137760652D01*
X112472494Y-137760652D02*
X112532017Y-137879700D01*
X112532017Y-137879700D02*
X112651065Y-137939223D01*
X112651065Y-137939223D02*
X112829636Y-137939223D01*
X112829636Y-137939223D02*
X112948684Y-137879700D01*
X112948684Y-137879700D02*
X113008208Y-137820176D01*
X113603446Y-137105890D02*
X113603446Y-138355890D01*
X113603446Y-137165414D02*
X113722493Y-137105890D01*
X113722493Y-137105890D02*
X113960588Y-137105890D01*
X113960588Y-137105890D02*
X114079636Y-137165414D01*
X114079636Y-137165414D02*
X114139160Y-137224938D01*
X114139160Y-137224938D02*
X114198684Y-137343985D01*
X114198684Y-137343985D02*
X114198684Y-137701128D01*
X114198684Y-137701128D02*
X114139160Y-137820176D01*
X114139160Y-137820176D02*
X114079636Y-137879700D01*
X114079636Y-137879700D02*
X113960588Y-137939223D01*
X113960588Y-137939223D02*
X113722493Y-137939223D01*
X113722493Y-137939223D02*
X113603446Y-137879700D01*
X114912969Y-137939223D02*
X114793921Y-137879700D01*
X114793921Y-137879700D02*
X114734398Y-137760652D01*
X114734398Y-137760652D02*
X114734398Y-136689223D01*
X115865350Y-137879700D02*
X115746302Y-137939223D01*
X115746302Y-137939223D02*
X115508207Y-137939223D01*
X115508207Y-137939223D02*
X115389160Y-137879700D01*
X115389160Y-137879700D02*
X115329636Y-137760652D01*
X115329636Y-137760652D02*
X115329636Y-137284461D01*
X115329636Y-137284461D02*
X115389160Y-137165414D01*
X115389160Y-137165414D02*
X115508207Y-137105890D01*
X115508207Y-137105890D02*
X115746302Y-137105890D01*
X115746302Y-137105890D02*
X115865350Y-137165414D01*
X115865350Y-137165414D02*
X115924874Y-137284461D01*
X115924874Y-137284461D02*
X115924874Y-137403509D01*
X115924874Y-137403509D02*
X115329636Y-137522557D01*
X116460589Y-137939223D02*
X116460589Y-137105890D01*
X116460589Y-137343985D02*
X116520112Y-137224938D01*
X116520112Y-137224938D02*
X116579636Y-137165414D01*
X116579636Y-137165414D02*
X116698684Y-137105890D01*
X116698684Y-137105890D02*
X116817731Y-137105890D01*
X118186780Y-137463033D02*
X119139161Y-137463033D01*
X121043922Y-136689223D02*
X121043922Y-137582080D01*
X121043922Y-137582080D02*
X120984399Y-137760652D01*
X120984399Y-137760652D02*
X120865351Y-137879700D01*
X120865351Y-137879700D02*
X120686780Y-137939223D01*
X120686780Y-137939223D02*
X120567732Y-137939223D01*
X121817732Y-137939223D02*
X121698684Y-137879700D01*
X121698684Y-137879700D02*
X121639161Y-137820176D01*
X121639161Y-137820176D02*
X121579637Y-137701128D01*
X121579637Y-137701128D02*
X121579637Y-137343985D01*
X121579637Y-137343985D02*
X121639161Y-137224938D01*
X121639161Y-137224938D02*
X121698684Y-137165414D01*
X121698684Y-137165414D02*
X121817732Y-137105890D01*
X121817732Y-137105890D02*
X121996303Y-137105890D01*
X121996303Y-137105890D02*
X122115351Y-137165414D01*
X122115351Y-137165414D02*
X122174875Y-137224938D01*
X122174875Y-137224938D02*
X122234399Y-137343985D01*
X122234399Y-137343985D02*
X122234399Y-137701128D01*
X122234399Y-137701128D02*
X122174875Y-137820176D01*
X122174875Y-137820176D02*
X122115351Y-137879700D01*
X122115351Y-137879700D02*
X121996303Y-137939223D01*
X121996303Y-137939223D02*
X121817732Y-137939223D01*
X123305827Y-137939223D02*
X123305827Y-137284461D01*
X123305827Y-137284461D02*
X123246303Y-137165414D01*
X123246303Y-137165414D02*
X123127255Y-137105890D01*
X123127255Y-137105890D02*
X122889160Y-137105890D01*
X122889160Y-137105890D02*
X122770113Y-137165414D01*
X123305827Y-137879700D02*
X123186779Y-137939223D01*
X123186779Y-137939223D02*
X122889160Y-137939223D01*
X122889160Y-137939223D02*
X122770113Y-137879700D01*
X122770113Y-137879700D02*
X122710589Y-137760652D01*
X122710589Y-137760652D02*
X122710589Y-137641604D01*
X122710589Y-137641604D02*
X122770113Y-137522557D01*
X122770113Y-137522557D02*
X122889160Y-137463033D01*
X122889160Y-137463033D02*
X123186779Y-137463033D01*
X123186779Y-137463033D02*
X123305827Y-137403509D01*
X122710589Y-136808271D02*
X122770113Y-136748747D01*
X122770113Y-136748747D02*
X122889160Y-136689223D01*
X122889160Y-136689223D02*
X123127255Y-136808271D01*
X123127255Y-136808271D02*
X123246303Y-136748747D01*
X123246303Y-136748747D02*
X123305827Y-136689223D01*
X124079636Y-137939223D02*
X123960588Y-137879700D01*
X123960588Y-137879700D02*
X123901065Y-137820176D01*
X123901065Y-137820176D02*
X123841541Y-137701128D01*
X123841541Y-137701128D02*
X123841541Y-137343985D01*
X123841541Y-137343985D02*
X123901065Y-137224938D01*
X123901065Y-137224938D02*
X123960588Y-137165414D01*
X123960588Y-137165414D02*
X124079636Y-137105890D01*
X124079636Y-137105890D02*
X124258207Y-137105890D01*
X124258207Y-137105890D02*
X124377255Y-137165414D01*
X124377255Y-137165414D02*
X124436779Y-137224938D01*
X124436779Y-137224938D02*
X124496303Y-137343985D01*
X124496303Y-137343985D02*
X124496303Y-137701128D01*
X124496303Y-137701128D02*
X124436779Y-137820176D01*
X124436779Y-137820176D02*
X124377255Y-137879700D01*
X124377255Y-137879700D02*
X124258207Y-137939223D01*
X124258207Y-137939223D02*
X124079636Y-137939223D01*
X126401064Y-137284461D02*
X125984398Y-137284461D01*
X125984398Y-137939223D02*
X125984398Y-136689223D01*
X125984398Y-136689223D02*
X126579636Y-136689223D01*
X127532017Y-137879700D02*
X127412969Y-137939223D01*
X127412969Y-137939223D02*
X127174874Y-137939223D01*
X127174874Y-137939223D02*
X127055827Y-137879700D01*
X127055827Y-137879700D02*
X126996303Y-137760652D01*
X126996303Y-137760652D02*
X126996303Y-137284461D01*
X126996303Y-137284461D02*
X127055827Y-137165414D01*
X127055827Y-137165414D02*
X127174874Y-137105890D01*
X127174874Y-137105890D02*
X127412969Y-137105890D01*
X127412969Y-137105890D02*
X127532017Y-137165414D01*
X127532017Y-137165414D02*
X127591541Y-137284461D01*
X127591541Y-137284461D02*
X127591541Y-137403509D01*
X127591541Y-137403509D02*
X126996303Y-137522557D01*
X128127256Y-137939223D02*
X128127256Y-137105890D01*
X128127256Y-137343985D02*
X128186779Y-137224938D01*
X128186779Y-137224938D02*
X128246303Y-137165414D01*
X128246303Y-137165414D02*
X128365351Y-137105890D01*
X128365351Y-137105890D02*
X128484398Y-137105890D01*
X128901066Y-137939223D02*
X128901066Y-137105890D01*
X128901066Y-137343985D02*
X128960589Y-137224938D01*
X128960589Y-137224938D02*
X129020113Y-137165414D01*
X129020113Y-137165414D02*
X129139161Y-137105890D01*
X129139161Y-137105890D02*
X129258208Y-137105890D01*
X130151066Y-137879700D02*
X130032018Y-137939223D01*
X130032018Y-137939223D02*
X129793923Y-137939223D01*
X129793923Y-137939223D02*
X129674876Y-137879700D01*
X129674876Y-137879700D02*
X129615352Y-137760652D01*
X129615352Y-137760652D02*
X129615352Y-137284461D01*
X129615352Y-137284461D02*
X129674876Y-137165414D01*
X129674876Y-137165414D02*
X129793923Y-137105890D01*
X129793923Y-137105890D02*
X130032018Y-137105890D01*
X130032018Y-137105890D02*
X130151066Y-137165414D01*
X130151066Y-137165414D02*
X130210590Y-137284461D01*
X130210590Y-137284461D02*
X130210590Y-137403509D01*
X130210590Y-137403509D02*
X129615352Y-137522557D01*
X130746305Y-137939223D02*
X130746305Y-137105890D01*
X130746305Y-136689223D02*
X130686781Y-136748747D01*
X130686781Y-136748747D02*
X130746305Y-136808271D01*
X130746305Y-136808271D02*
X130805828Y-136748747D01*
X130805828Y-136748747D02*
X130746305Y-136689223D01*
X130746305Y-136689223D02*
X130746305Y-136808271D01*
X131341543Y-137939223D02*
X131341543Y-137105890D01*
X131341543Y-137343985D02*
X131401066Y-137224938D01*
X131401066Y-137224938D02*
X131460590Y-137165414D01*
X131460590Y-137165414D02*
X131579638Y-137105890D01*
X131579638Y-137105890D02*
X131698685Y-137105890D01*
X132651067Y-137939223D02*
X132651067Y-137284461D01*
X132651067Y-137284461D02*
X132591543Y-137165414D01*
X132591543Y-137165414D02*
X132472495Y-137105890D01*
X132472495Y-137105890D02*
X132234400Y-137105890D01*
X132234400Y-137105890D02*
X132115353Y-137165414D01*
X132651067Y-137879700D02*
X132532019Y-137939223D01*
X132532019Y-137939223D02*
X132234400Y-137939223D01*
X132234400Y-137939223D02*
X132115353Y-137879700D01*
X132115353Y-137879700D02*
X132055829Y-137760652D01*
X132055829Y-137760652D02*
X132055829Y-137641604D01*
X132055829Y-137641604D02*
X132115353Y-137522557D01*
X132115353Y-137522557D02*
X132234400Y-137463033D01*
X132234400Y-137463033D02*
X132532019Y-137463033D01*
X132532019Y-137463033D02*
X132651067Y-137403509D01*
X134555828Y-138415414D02*
X134496305Y-138355890D01*
X134496305Y-138355890D02*
X134377257Y-138177319D01*
X134377257Y-138177319D02*
X134317733Y-138058271D01*
X134317733Y-138058271D02*
X134258209Y-137879700D01*
X134258209Y-137879700D02*
X134198686Y-137582080D01*
X134198686Y-137582080D02*
X134198686Y-137343985D01*
X134198686Y-137343985D02*
X134258209Y-137046366D01*
X134258209Y-137046366D02*
X134317733Y-136867795D01*
X134317733Y-136867795D02*
X134377257Y-136748747D01*
X134377257Y-136748747D02*
X134496305Y-136570176D01*
X134496305Y-136570176D02*
X134555828Y-136510652D01*
X135032019Y-137939223D02*
X135032019Y-136689223D01*
X135032019Y-136689223D02*
X135508209Y-136689223D01*
X135508209Y-136689223D02*
X135627257Y-136748747D01*
X135627257Y-136748747D02*
X135686780Y-136808271D01*
X135686780Y-136808271D02*
X135746304Y-136927319D01*
X135746304Y-136927319D02*
X135746304Y-137105890D01*
X135746304Y-137105890D02*
X135686780Y-137224938D01*
X135686780Y-137224938D02*
X135627257Y-137284461D01*
X135627257Y-137284461D02*
X135508209Y-137343985D01*
X135508209Y-137343985D02*
X135032019Y-137343985D01*
X136936780Y-136748747D02*
X136817733Y-136689223D01*
X136817733Y-136689223D02*
X136639161Y-136689223D01*
X136639161Y-136689223D02*
X136460590Y-136748747D01*
X136460590Y-136748747D02*
X136341542Y-136867795D01*
X136341542Y-136867795D02*
X136282019Y-136986842D01*
X136282019Y-136986842D02*
X136222495Y-137224938D01*
X136222495Y-137224938D02*
X136222495Y-137403509D01*
X136222495Y-137403509D02*
X136282019Y-137641604D01*
X136282019Y-137641604D02*
X136341542Y-137760652D01*
X136341542Y-137760652D02*
X136460590Y-137879700D01*
X136460590Y-137879700D02*
X136639161Y-137939223D01*
X136639161Y-137939223D02*
X136758209Y-137939223D01*
X136758209Y-137939223D02*
X136936780Y-137879700D01*
X136936780Y-137879700D02*
X136996304Y-137820176D01*
X136996304Y-137820176D02*
X136996304Y-137403509D01*
X136996304Y-137403509D02*
X136758209Y-137403509D01*
X138127257Y-136689223D02*
X137532019Y-136689223D01*
X137532019Y-136689223D02*
X137472495Y-137284461D01*
X137472495Y-137284461D02*
X137532019Y-137224938D01*
X137532019Y-137224938D02*
X137651066Y-137165414D01*
X137651066Y-137165414D02*
X137948685Y-137165414D01*
X137948685Y-137165414D02*
X138067733Y-137224938D01*
X138067733Y-137224938D02*
X138127257Y-137284461D01*
X138127257Y-137284461D02*
X138186780Y-137403509D01*
X138186780Y-137403509D02*
X138186780Y-137701128D01*
X138186780Y-137701128D02*
X138127257Y-137820176D01*
X138127257Y-137820176D02*
X138067733Y-137879700D01*
X138067733Y-137879700D02*
X137948685Y-137939223D01*
X137948685Y-137939223D02*
X137651066Y-137939223D01*
X137651066Y-137939223D02*
X137532019Y-137879700D01*
X137532019Y-137879700D02*
X137472495Y-137820176D01*
X138603447Y-136689223D02*
X139377256Y-136689223D01*
X139377256Y-136689223D02*
X138960590Y-137165414D01*
X138960590Y-137165414D02*
X139139161Y-137165414D01*
X139139161Y-137165414D02*
X139258209Y-137224938D01*
X139258209Y-137224938D02*
X139317733Y-137284461D01*
X139317733Y-137284461D02*
X139377256Y-137403509D01*
X139377256Y-137403509D02*
X139377256Y-137701128D01*
X139377256Y-137701128D02*
X139317733Y-137820176D01*
X139317733Y-137820176D02*
X139258209Y-137879700D01*
X139258209Y-137879700D02*
X139139161Y-137939223D01*
X139139161Y-137939223D02*
X138782018Y-137939223D01*
X138782018Y-137939223D02*
X138662971Y-137879700D01*
X138662971Y-137879700D02*
X138603447Y-137820176D01*
X139972494Y-137939223D02*
X140210590Y-137939223D01*
X140210590Y-137939223D02*
X140329637Y-137879700D01*
X140329637Y-137879700D02*
X140389161Y-137820176D01*
X140389161Y-137820176D02*
X140508209Y-137641604D01*
X140508209Y-137641604D02*
X140567732Y-137403509D01*
X140567732Y-137403509D02*
X140567732Y-136927319D01*
X140567732Y-136927319D02*
X140508209Y-136808271D01*
X140508209Y-136808271D02*
X140448685Y-136748747D01*
X140448685Y-136748747D02*
X140329637Y-136689223D01*
X140329637Y-136689223D02*
X140091542Y-136689223D01*
X140091542Y-136689223D02*
X139972494Y-136748747D01*
X139972494Y-136748747D02*
X139912971Y-136808271D01*
X139912971Y-136808271D02*
X139853447Y-136927319D01*
X139853447Y-136927319D02*
X139853447Y-137224938D01*
X139853447Y-137224938D02*
X139912971Y-137343985D01*
X139912971Y-137343985D02*
X139972494Y-137403509D01*
X139972494Y-137403509D02*
X140091542Y-137463033D01*
X140091542Y-137463033D02*
X140329637Y-137463033D01*
X140329637Y-137463033D02*
X140448685Y-137403509D01*
X140448685Y-137403509D02*
X140508209Y-137343985D01*
X140508209Y-137343985D02*
X140567732Y-137224938D01*
X141758208Y-137939223D02*
X141043923Y-137939223D01*
X141401066Y-137939223D02*
X141401066Y-136689223D01*
X141401066Y-136689223D02*
X141282018Y-136867795D01*
X141282018Y-136867795D02*
X141162970Y-136986842D01*
X141162970Y-136986842D02*
X141043923Y-137046366D01*
X142829637Y-137105890D02*
X142829637Y-137939223D01*
X142532018Y-136629700D02*
X142234399Y-137522557D01*
X142234399Y-137522557D02*
X143008208Y-137522557D01*
X143365351Y-138415414D02*
X143424875Y-138355890D01*
X143424875Y-138355890D02*
X143543922Y-138177319D01*
X143543922Y-138177319D02*
X143603446Y-138058271D01*
X143603446Y-138058271D02*
X143662970Y-137879700D01*
X143662970Y-137879700D02*
X143722494Y-137582080D01*
X143722494Y-137582080D02*
X143722494Y-137343985D01*
X143722494Y-137343985D02*
X143662970Y-137046366D01*
X143662970Y-137046366D02*
X143603446Y-136867795D01*
X143603446Y-136867795D02*
X143543922Y-136748747D01*
X143543922Y-136748747D02*
X143424875Y-136570176D01*
X143424875Y-136570176D02*
X143365351Y-136510652D01*
D11*
X105921615Y-143617714D02*
X106421615Y-143617714D01*
X106635901Y-144403428D02*
X105921615Y-144403428D01*
X105921615Y-144403428D02*
X105921615Y-142903428D01*
X105921615Y-142903428D02*
X106635901Y-142903428D01*
X107493044Y-144403428D02*
X107350187Y-144332000D01*
X107350187Y-144332000D02*
X107278758Y-144189142D01*
X107278758Y-144189142D02*
X107278758Y-142903428D01*
X108635901Y-144332000D02*
X108493044Y-144403428D01*
X108493044Y-144403428D02*
X108207330Y-144403428D01*
X108207330Y-144403428D02*
X108064472Y-144332000D01*
X108064472Y-144332000D02*
X107993044Y-144189142D01*
X107993044Y-144189142D02*
X107993044Y-143617714D01*
X107993044Y-143617714D02*
X108064472Y-143474857D01*
X108064472Y-143474857D02*
X108207330Y-143403428D01*
X108207330Y-143403428D02*
X108493044Y-143403428D01*
X108493044Y-143403428D02*
X108635901Y-143474857D01*
X108635901Y-143474857D02*
X108707330Y-143617714D01*
X108707330Y-143617714D02*
X108707330Y-143760571D01*
X108707330Y-143760571D02*
X107993044Y-143903428D01*
X109135901Y-143403428D02*
X109707329Y-143403428D01*
X109350186Y-142903428D02*
X109350186Y-144189142D01*
X109350186Y-144189142D02*
X109421615Y-144332000D01*
X109421615Y-144332000D02*
X109564472Y-144403428D01*
X109564472Y-144403428D02*
X109707329Y-144403428D01*
X110207329Y-144403428D02*
X110207329Y-143403428D01*
X110207329Y-143689142D02*
X110278758Y-143546285D01*
X110278758Y-143546285D02*
X110350187Y-143474857D01*
X110350187Y-143474857D02*
X110493044Y-143403428D01*
X110493044Y-143403428D02*
X110635901Y-143403428D01*
X111350186Y-144403428D02*
X111207329Y-144332000D01*
X111207329Y-144332000D02*
X111135900Y-144260571D01*
X111135900Y-144260571D02*
X111064472Y-144117714D01*
X111064472Y-144117714D02*
X111064472Y-143689142D01*
X111064472Y-143689142D02*
X111135900Y-143546285D01*
X111135900Y-143546285D02*
X111207329Y-143474857D01*
X111207329Y-143474857D02*
X111350186Y-143403428D01*
X111350186Y-143403428D02*
X111564472Y-143403428D01*
X111564472Y-143403428D02*
X111707329Y-143474857D01*
X111707329Y-143474857D02*
X111778758Y-143546285D01*
X111778758Y-143546285D02*
X111850186Y-143689142D01*
X111850186Y-143689142D02*
X111850186Y-144117714D01*
X111850186Y-144117714D02*
X111778758Y-144260571D01*
X111778758Y-144260571D02*
X111707329Y-144332000D01*
X111707329Y-144332000D02*
X111564472Y-144403428D01*
X111564472Y-144403428D02*
X111350186Y-144403428D01*
X111635900Y-142832000D02*
X111421615Y-143046285D01*
X112493043Y-143403428D02*
X112493043Y-144403428D01*
X112493043Y-143546285D02*
X112564472Y-143474857D01*
X112564472Y-143474857D02*
X112707329Y-143403428D01*
X112707329Y-143403428D02*
X112921615Y-143403428D01*
X112921615Y-143403428D02*
X113064472Y-143474857D01*
X113064472Y-143474857D02*
X113135901Y-143617714D01*
X113135901Y-143617714D02*
X113135901Y-144403428D01*
X113850186Y-144403428D02*
X113850186Y-143403428D01*
X113850186Y-142903428D02*
X113778758Y-142974857D01*
X113778758Y-142974857D02*
X113850186Y-143046285D01*
X113850186Y-143046285D02*
X113921615Y-142974857D01*
X113921615Y-142974857D02*
X113850186Y-142903428D01*
X113850186Y-142903428D02*
X113850186Y-143046285D01*
X115207330Y-144332000D02*
X115064472Y-144403428D01*
X115064472Y-144403428D02*
X114778758Y-144403428D01*
X114778758Y-144403428D02*
X114635901Y-144332000D01*
X114635901Y-144332000D02*
X114564472Y-144260571D01*
X114564472Y-144260571D02*
X114493044Y-144117714D01*
X114493044Y-144117714D02*
X114493044Y-143689142D01*
X114493044Y-143689142D02*
X114564472Y-143546285D01*
X114564472Y-143546285D02*
X114635901Y-143474857D01*
X114635901Y-143474857D02*
X114778758Y-143403428D01*
X114778758Y-143403428D02*
X115064472Y-143403428D01*
X115064472Y-143403428D02*
X115207330Y-143474857D01*
X116493044Y-144403428D02*
X116493044Y-143617714D01*
X116493044Y-143617714D02*
X116421615Y-143474857D01*
X116421615Y-143474857D02*
X116278758Y-143403428D01*
X116278758Y-143403428D02*
X115993044Y-143403428D01*
X115993044Y-143403428D02*
X115850186Y-143474857D01*
X116493044Y-144332000D02*
X116350186Y-144403428D01*
X116350186Y-144403428D02*
X115993044Y-144403428D01*
X115993044Y-144403428D02*
X115850186Y-144332000D01*
X115850186Y-144332000D02*
X115778758Y-144189142D01*
X115778758Y-144189142D02*
X115778758Y-144046285D01*
X115778758Y-144046285D02*
X115850186Y-143903428D01*
X115850186Y-143903428D02*
X115993044Y-143832000D01*
X115993044Y-143832000D02*
X116350186Y-143832000D01*
X116350186Y-143832000D02*
X116493044Y-143760571D01*
X118993044Y-144403428D02*
X118993044Y-142903428D01*
X118993044Y-144332000D02*
X118850186Y-144403428D01*
X118850186Y-144403428D02*
X118564472Y-144403428D01*
X118564472Y-144403428D02*
X118421615Y-144332000D01*
X118421615Y-144332000D02*
X118350186Y-144260571D01*
X118350186Y-144260571D02*
X118278758Y-144117714D01*
X118278758Y-144117714D02*
X118278758Y-143689142D01*
X118278758Y-143689142D02*
X118350186Y-143546285D01*
X118350186Y-143546285D02*
X118421615Y-143474857D01*
X118421615Y-143474857D02*
X118564472Y-143403428D01*
X118564472Y-143403428D02*
X118850186Y-143403428D01*
X118850186Y-143403428D02*
X118993044Y-143474857D01*
X120278758Y-144332000D02*
X120135901Y-144403428D01*
X120135901Y-144403428D02*
X119850187Y-144403428D01*
X119850187Y-144403428D02*
X119707329Y-144332000D01*
X119707329Y-144332000D02*
X119635901Y-144189142D01*
X119635901Y-144189142D02*
X119635901Y-143617714D01*
X119635901Y-143617714D02*
X119707329Y-143474857D01*
X119707329Y-143474857D02*
X119850187Y-143403428D01*
X119850187Y-143403428D02*
X120135901Y-143403428D01*
X120135901Y-143403428D02*
X120278758Y-143474857D01*
X120278758Y-143474857D02*
X120350187Y-143617714D01*
X120350187Y-143617714D02*
X120350187Y-143760571D01*
X120350187Y-143760571D02*
X119635901Y-143903428D01*
X122993043Y-144403428D02*
X122493043Y-143689142D01*
X122135900Y-144403428D02*
X122135900Y-142903428D01*
X122135900Y-142903428D02*
X122707329Y-142903428D01*
X122707329Y-142903428D02*
X122850186Y-142974857D01*
X122850186Y-142974857D02*
X122921615Y-143046285D01*
X122921615Y-143046285D02*
X122993043Y-143189142D01*
X122993043Y-143189142D02*
X122993043Y-143403428D01*
X122993043Y-143403428D02*
X122921615Y-143546285D01*
X122921615Y-143546285D02*
X122850186Y-143617714D01*
X122850186Y-143617714D02*
X122707329Y-143689142D01*
X122707329Y-143689142D02*
X122135900Y-143689142D01*
X124278758Y-144403428D02*
X124278758Y-143617714D01*
X124278758Y-143617714D02*
X124207329Y-143474857D01*
X124207329Y-143474857D02*
X124064472Y-143403428D01*
X124064472Y-143403428D02*
X123778758Y-143403428D01*
X123778758Y-143403428D02*
X123635900Y-143474857D01*
X124278758Y-144332000D02*
X124135900Y-144403428D01*
X124135900Y-144403428D02*
X123778758Y-144403428D01*
X123778758Y-144403428D02*
X123635900Y-144332000D01*
X123635900Y-144332000D02*
X123564472Y-144189142D01*
X123564472Y-144189142D02*
X123564472Y-144046285D01*
X123564472Y-144046285D02*
X123635900Y-143903428D01*
X123635900Y-143903428D02*
X123778758Y-143832000D01*
X123778758Y-143832000D02*
X124135900Y-143832000D01*
X124135900Y-143832000D02*
X124278758Y-143760571D01*
X125635901Y-144403428D02*
X125635901Y-142903428D01*
X125635901Y-144332000D02*
X125493043Y-144403428D01*
X125493043Y-144403428D02*
X125207329Y-144403428D01*
X125207329Y-144403428D02*
X125064472Y-144332000D01*
X125064472Y-144332000D02*
X124993043Y-144260571D01*
X124993043Y-144260571D02*
X124921615Y-144117714D01*
X124921615Y-144117714D02*
X124921615Y-143689142D01*
X124921615Y-143689142D02*
X124993043Y-143546285D01*
X124993043Y-143546285D02*
X125064472Y-143474857D01*
X125064472Y-143474857D02*
X125207329Y-143403428D01*
X125207329Y-143403428D02*
X125493043Y-143403428D01*
X125493043Y-143403428D02*
X125635901Y-143474857D01*
X126350186Y-144403428D02*
X126350186Y-143403428D01*
X126350186Y-142903428D02*
X126278758Y-142974857D01*
X126278758Y-142974857D02*
X126350186Y-143046285D01*
X126350186Y-143046285D02*
X126421615Y-142974857D01*
X126421615Y-142974857D02*
X126350186Y-142903428D01*
X126350186Y-142903428D02*
X126350186Y-143046285D01*
X127278758Y-144403428D02*
X127135901Y-144332000D01*
X127135901Y-144332000D02*
X127064472Y-144260571D01*
X127064472Y-144260571D02*
X126993044Y-144117714D01*
X126993044Y-144117714D02*
X126993044Y-143689142D01*
X126993044Y-143689142D02*
X127064472Y-143546285D01*
X127064472Y-143546285D02*
X127135901Y-143474857D01*
X127135901Y-143474857D02*
X127278758Y-143403428D01*
X127278758Y-143403428D02*
X127493044Y-143403428D01*
X127493044Y-143403428D02*
X127635901Y-143474857D01*
X127635901Y-143474857D02*
X127707330Y-143546285D01*
X127707330Y-143546285D02*
X127778758Y-143689142D01*
X127778758Y-143689142D02*
X127778758Y-144117714D01*
X127778758Y-144117714D02*
X127707330Y-144260571D01*
X127707330Y-144260571D02*
X127635901Y-144332000D01*
X127635901Y-144332000D02*
X127493044Y-144403428D01*
X127493044Y-144403428D02*
X127278758Y-144403428D01*
X128207330Y-143403428D02*
X128778758Y-143403428D01*
X128421615Y-144403428D02*
X128421615Y-143117714D01*
X128421615Y-143117714D02*
X128493044Y-142974857D01*
X128493044Y-142974857D02*
X128635901Y-142903428D01*
X128635901Y-142903428D02*
X128778758Y-142903428D01*
X129278758Y-144403428D02*
X129278758Y-143403428D01*
X129278758Y-143689142D02*
X129350187Y-143546285D01*
X129350187Y-143546285D02*
X129421616Y-143474857D01*
X129421616Y-143474857D02*
X129564473Y-143403428D01*
X129564473Y-143403428D02*
X129707330Y-143403428D01*
X130778758Y-144332000D02*
X130635901Y-144403428D01*
X130635901Y-144403428D02*
X130350187Y-144403428D01*
X130350187Y-144403428D02*
X130207329Y-144332000D01*
X130207329Y-144332000D02*
X130135901Y-144189142D01*
X130135901Y-144189142D02*
X130135901Y-143617714D01*
X130135901Y-143617714D02*
X130207329Y-143474857D01*
X130207329Y-143474857D02*
X130350187Y-143403428D01*
X130350187Y-143403428D02*
X130635901Y-143403428D01*
X130635901Y-143403428D02*
X130778758Y-143474857D01*
X130778758Y-143474857D02*
X130850187Y-143617714D01*
X130850187Y-143617714D02*
X130850187Y-143760571D01*
X130850187Y-143760571D02*
X130135901Y-143903428D01*
X132135901Y-143403428D02*
X132135901Y-144903428D01*
X132135901Y-144332000D02*
X131993043Y-144403428D01*
X131993043Y-144403428D02*
X131707329Y-144403428D01*
X131707329Y-144403428D02*
X131564472Y-144332000D01*
X131564472Y-144332000D02*
X131493043Y-144260571D01*
X131493043Y-144260571D02*
X131421615Y-144117714D01*
X131421615Y-144117714D02*
X131421615Y-143689142D01*
X131421615Y-143689142D02*
X131493043Y-143546285D01*
X131493043Y-143546285D02*
X131564472Y-143474857D01*
X131564472Y-143474857D02*
X131707329Y-143403428D01*
X131707329Y-143403428D02*
X131993043Y-143403428D01*
X131993043Y-143403428D02*
X132135901Y-143474857D01*
X133493044Y-143403428D02*
X133493044Y-144403428D01*
X132850186Y-143403428D02*
X132850186Y-144189142D01*
X132850186Y-144189142D02*
X132921615Y-144332000D01*
X132921615Y-144332000D02*
X133064472Y-144403428D01*
X133064472Y-144403428D02*
X133278758Y-144403428D01*
X133278758Y-144403428D02*
X133421615Y-144332000D01*
X133421615Y-144332000D02*
X133493044Y-144260571D01*
X134778758Y-144332000D02*
X134635901Y-144403428D01*
X134635901Y-144403428D02*
X134350187Y-144403428D01*
X134350187Y-144403428D02*
X134207329Y-144332000D01*
X134207329Y-144332000D02*
X134135901Y-144189142D01*
X134135901Y-144189142D02*
X134135901Y-143617714D01*
X134135901Y-143617714D02*
X134207329Y-143474857D01*
X134207329Y-143474857D02*
X134350187Y-143403428D01*
X134350187Y-143403428D02*
X134635901Y-143403428D01*
X134635901Y-143403428D02*
X134778758Y-143474857D01*
X134778758Y-143474857D02*
X134850187Y-143617714D01*
X134850187Y-143617714D02*
X134850187Y-143760571D01*
X134850187Y-143760571D02*
X134135901Y-143903428D01*
X134207329Y-143046285D02*
X134493044Y-142832000D01*
X134493044Y-142832000D02*
X134778758Y-143046285D01*
X135493043Y-143403428D02*
X135493043Y-144403428D01*
X135493043Y-143546285D02*
X135564472Y-143474857D01*
X135564472Y-143474857D02*
X135707329Y-143403428D01*
X135707329Y-143403428D02*
X135921615Y-143403428D01*
X135921615Y-143403428D02*
X136064472Y-143474857D01*
X136064472Y-143474857D02*
X136135901Y-143617714D01*
X136135901Y-143617714D02*
X136135901Y-144403428D01*
X137493044Y-144332000D02*
X137350186Y-144403428D01*
X137350186Y-144403428D02*
X137064472Y-144403428D01*
X137064472Y-144403428D02*
X136921615Y-144332000D01*
X136921615Y-144332000D02*
X136850186Y-144260571D01*
X136850186Y-144260571D02*
X136778758Y-144117714D01*
X136778758Y-144117714D02*
X136778758Y-143689142D01*
X136778758Y-143689142D02*
X136850186Y-143546285D01*
X136850186Y-143546285D02*
X136921615Y-143474857D01*
X136921615Y-143474857D02*
X137064472Y-143403428D01*
X137064472Y-143403428D02*
X137350186Y-143403428D01*
X137350186Y-143403428D02*
X137493044Y-143474857D01*
X138135900Y-144403428D02*
X138135900Y-143403428D01*
X138135900Y-142903428D02*
X138064472Y-142974857D01*
X138064472Y-142974857D02*
X138135900Y-143046285D01*
X138135900Y-143046285D02*
X138207329Y-142974857D01*
X138207329Y-142974857D02*
X138135900Y-142903428D01*
X138135900Y-142903428D02*
X138135900Y-143046285D01*
X139493044Y-144403428D02*
X139493044Y-143617714D01*
X139493044Y-143617714D02*
X139421615Y-143474857D01*
X139421615Y-143474857D02*
X139278758Y-143403428D01*
X139278758Y-143403428D02*
X138993044Y-143403428D01*
X138993044Y-143403428D02*
X138850186Y-143474857D01*
X139493044Y-144332000D02*
X139350186Y-144403428D01*
X139350186Y-144403428D02*
X138993044Y-144403428D01*
X138993044Y-144403428D02*
X138850186Y-144332000D01*
X138850186Y-144332000D02*
X138778758Y-144189142D01*
X138778758Y-144189142D02*
X138778758Y-144046285D01*
X138778758Y-144046285D02*
X138850186Y-143903428D01*
X138850186Y-143903428D02*
X138993044Y-143832000D01*
X138993044Y-143832000D02*
X139350186Y-143832000D01*
X139350186Y-143832000D02*
X139493044Y-143760571D01*
D10*
X95688295Y-69353982D02*
X95069706Y-69711125D01*
X95069706Y-69711125D02*
X94922178Y-69741314D01*
X94922178Y-69741314D02*
X94792081Y-69706454D01*
X94792081Y-69706454D02*
X94679413Y-69606546D01*
X94679413Y-69606546D02*
X94631794Y-69524067D01*
X95820103Y-69772755D02*
X95885151Y-69790185D01*
X95885151Y-69790185D02*
X95974010Y-69848854D01*
X95974010Y-69848854D02*
X96093057Y-70055050D01*
X96093057Y-70055050D02*
X96099437Y-70161338D01*
X96099437Y-70161338D02*
X96082007Y-70226387D01*
X96082007Y-70226387D02*
X96023338Y-70315245D01*
X96023338Y-70315245D02*
X95940860Y-70362865D01*
X95940860Y-70362865D02*
X95793332Y-70393054D01*
X95793332Y-70393054D02*
X95012746Y-70183896D01*
X95012746Y-70183896D02*
X95322270Y-70720007D01*
X137854016Y-63331333D02*
X138472606Y-63688476D01*
X138472606Y-63688476D02*
X138572514Y-63801144D01*
X138572514Y-63801144D02*
X138607374Y-63931242D01*
X138607374Y-63931242D02*
X138577184Y-64078769D01*
X138577184Y-64078769D02*
X138529565Y-64161248D01*
X138044493Y-63001419D02*
X138354016Y-62465308D01*
X138354016Y-62465308D02*
X138517264Y-62944459D01*
X138517264Y-62944459D02*
X138588693Y-62820741D01*
X138588693Y-62820741D02*
X138677551Y-62762072D01*
X138677551Y-62762072D02*
X138742600Y-62744642D01*
X138742600Y-62744642D02*
X138848888Y-62751022D01*
X138848888Y-62751022D02*
X139055085Y-62870070D01*
X139055085Y-62870070D02*
X139113754Y-62958928D01*
X139113754Y-62958928D02*
X139131183Y-63023977D01*
X139131183Y-63023977D02*
X139124804Y-63130265D01*
X139124804Y-63130265D02*
X138981946Y-63377701D01*
X138981946Y-63377701D02*
X138893088Y-63436370D01*
X138893088Y-63436370D02*
X138828039Y-63453800D01*
X165776666Y-96354819D02*
X165776666Y-97069104D01*
X165776666Y-97069104D02*
X165729047Y-97211961D01*
X165729047Y-97211961D02*
X165633809Y-97307200D01*
X165633809Y-97307200D02*
X165490952Y-97354819D01*
X165490952Y-97354819D02*
X165395714Y-97354819D01*
X166681428Y-96688152D02*
X166681428Y-97354819D01*
X166443333Y-96307200D02*
X166205238Y-97021485D01*
X166205238Y-97021485D02*
X166824285Y-97021485D01*
X79666666Y-110254819D02*
X79666666Y-110969104D01*
X79666666Y-110969104D02*
X79619047Y-111111961D01*
X79619047Y-111111961D02*
X79523809Y-111207200D01*
X79523809Y-111207200D02*
X79380952Y-111254819D01*
X79380952Y-111254819D02*
X79285714Y-111254819D01*
X80666666Y-111254819D02*
X80095238Y-111254819D01*
X80380952Y-111254819D02*
X80380952Y-110254819D01*
X80380952Y-110254819D02*
X80285714Y-110397676D01*
X80285714Y-110397676D02*
X80190476Y-110492914D01*
X80190476Y-110492914D02*
X80095238Y-110540533D01*
D12*
X103195001Y-69446338D02*
X103661507Y-69754351D01*
X103228493Y-70004351D02*
X103195001Y-69446338D01*
X103661507Y-69754351D02*
X103228493Y-70004351D01*
X142338494Y-70154351D02*
X142805000Y-69846338D01*
X142771506Y-70404350D02*
X142338494Y-70154351D01*
X142805000Y-69846338D02*
X142771506Y-70404350D01*
X162110000Y-103650000D02*
X162610000Y-103900000D01*
X162110000Y-104150000D02*
X162110000Y-103650000D01*
X162610000Y-103900000D02*
X162110000Y-104150000D01*
X83500000Y-103800000D02*
X84000000Y-103550000D01*
X84000000Y-103550000D02*
X84000000Y-104050000D01*
X84000000Y-104050000D02*
X83500000Y-103800000D01*
D13*
G36*
X130917325Y-128743946D02*
G01*
X130908830Y-128752441D01*
X130900335Y-128743946D01*
X130908830Y-128735451D01*
X130917325Y-128743946D01*
G37*
G36*
X131410034Y-128115318D02*
G01*
X131401539Y-128123813D01*
X131393044Y-128115318D01*
X131401539Y-128106823D01*
X131410034Y-128115318D01*
G37*
G36*
X117623003Y-126191703D02*
G01*
X117712119Y-126236825D01*
X117789415Y-126308981D01*
X117791591Y-126311690D01*
X117843546Y-126376959D01*
X117848366Y-127038514D01*
X117849506Y-127206853D01*
X117850146Y-127344724D01*
X117850153Y-127455635D01*
X117849396Y-127543097D01*
X117847741Y-127610619D01*
X117845058Y-127661710D01*
X117841212Y-127699880D01*
X117836073Y-127728638D01*
X117829507Y-127751494D01*
X117821383Y-127771957D01*
X117820652Y-127773617D01*
X117766272Y-127856071D01*
X117687709Y-127917660D01*
X117596850Y-127952534D01*
X117549714Y-127962742D01*
X117518218Y-127968346D01*
X117512241Y-127968749D01*
X117491363Y-127964248D01*
X117452749Y-127955223D01*
X117451598Y-127954947D01*
X117353922Y-127914634D01*
X117271758Y-127846237D01*
X117244263Y-127811338D01*
X117197927Y-127744505D01*
X117192590Y-127105898D01*
X117191290Y-126929784D01*
X117190824Y-126784194D01*
X117191519Y-126665674D01*
X117193701Y-126570771D01*
X117197695Y-126496034D01*
X117203828Y-126438009D01*
X117212426Y-126393243D01*
X117223814Y-126358284D01*
X117238319Y-126329678D01*
X117256267Y-126303973D01*
X117269884Y-126287244D01*
X117345505Y-126221385D01*
X117433618Y-126183698D01*
X117528143Y-126173899D01*
X117623003Y-126191703D01*
G37*
G36*
X119302027Y-130210654D02*
G01*
X119347241Y-130233121D01*
X119414573Y-130269843D01*
X119499807Y-130318258D01*
X119598725Y-130375804D01*
X119707109Y-130439919D01*
X119820743Y-130508041D01*
X119935408Y-130577608D01*
X120046887Y-130646058D01*
X120150963Y-130710829D01*
X120243418Y-130769359D01*
X120320036Y-130819087D01*
X120376597Y-130857450D01*
X120408886Y-130881886D01*
X120412256Y-130885078D01*
X120466845Y-130964668D01*
X120492339Y-131055435D01*
X120488719Y-131150980D01*
X120455967Y-131244899D01*
X120413400Y-131309065D01*
X120342244Y-131373869D01*
X120257898Y-131416751D01*
X120168926Y-131434999D01*
X120083892Y-131425902D01*
X120065072Y-131419370D01*
X120041728Y-131407196D01*
X119993437Y-131379946D01*
X119924352Y-131340085D01*
X119838628Y-131290079D01*
X119740419Y-131232395D01*
X119633879Y-131169497D01*
X119523162Y-131103853D01*
X119412422Y-131037927D01*
X119305813Y-130974186D01*
X119207489Y-130915095D01*
X119121605Y-130863121D01*
X119052314Y-130820730D01*
X119003771Y-130790387D01*
X118986718Y-130779252D01*
X118923900Y-130718329D01*
X118878019Y-130637594D01*
X118855621Y-130549589D01*
X118854449Y-130525865D01*
X118862929Y-130467605D01*
X118884856Y-130399858D01*
X118897486Y-130371745D01*
X118957027Y-130284688D01*
X119033289Y-130223393D01*
X119121103Y-130189917D01*
X119215303Y-130186316D01*
X119302027Y-130210654D01*
G37*
G36*
X115916171Y-130192468D02*
G01*
X115966204Y-130207399D01*
X116018261Y-130238822D01*
X116019007Y-130239347D01*
X116098794Y-130313645D01*
X116148046Y-130402803D01*
X116166938Y-130507186D01*
X116166345Y-130548499D01*
X116162906Y-130591413D01*
X116156376Y-130628834D01*
X116144085Y-130662964D01*
X116123359Y-130696008D01*
X116091528Y-130730167D01*
X116045919Y-130767646D01*
X115983861Y-130810647D01*
X115902681Y-130861374D01*
X115799708Y-130922029D01*
X115672270Y-130994816D01*
X115523107Y-131078896D01*
X115397556Y-131149154D01*
X115279305Y-131214704D01*
X115172116Y-131273508D01*
X115079748Y-131323528D01*
X115005961Y-131362728D01*
X114954516Y-131389070D01*
X114930171Y-131400189D01*
X114850885Y-131417795D01*
X114775969Y-131409873D01*
X114716190Y-131387707D01*
X114630094Y-131330916D01*
X114564428Y-131251678D01*
X114523124Y-131157253D01*
X114510112Y-131054898D01*
X114513658Y-131013708D01*
X114521200Y-130978413D01*
X114534469Y-130945223D01*
X114556074Y-130912187D01*
X114588625Y-130877358D01*
X114634730Y-130838785D01*
X114696997Y-130794519D01*
X114778037Y-130742611D01*
X114880458Y-130681112D01*
X115006869Y-130608072D01*
X115159879Y-130521543D01*
X115210101Y-130493366D01*
X115351760Y-130414087D01*
X115467161Y-130349900D01*
X115559650Y-130299212D01*
X115632572Y-130260433D01*
X115689271Y-130231970D01*
X115733092Y-130212233D01*
X115767381Y-130199629D01*
X115795481Y-130192568D01*
X115820740Y-130189456D01*
X115846500Y-130188704D01*
X115850411Y-130188696D01*
X115916171Y-130192468D01*
G37*
G36*
X114931100Y-127725287D02*
G01*
X114995979Y-127749142D01*
X115046437Y-127775724D01*
X115120370Y-127815853D01*
X115214892Y-127867891D01*
X115327116Y-127930199D01*
X115454155Y-128001138D01*
X115593122Y-128079071D01*
X115741131Y-128162359D01*
X115895295Y-128249363D01*
X116052726Y-128338445D01*
X116210538Y-128427966D01*
X116365844Y-128516289D01*
X116515757Y-128601774D01*
X116657391Y-128682784D01*
X116787858Y-128757680D01*
X116904272Y-128824823D01*
X117003746Y-128882574D01*
X117083393Y-128929297D01*
X117140326Y-128963351D01*
X117171659Y-128983100D01*
X117176388Y-128986636D01*
X117234042Y-129061233D01*
X117263759Y-129145862D01*
X117267714Y-129234812D01*
X117248083Y-129322370D01*
X117207042Y-129402825D01*
X117146767Y-129470467D01*
X117069433Y-129519583D01*
X116977215Y-129544463D01*
X116963431Y-129545674D01*
X116890401Y-129543866D01*
X116829064Y-129530366D01*
X116821374Y-129527201D01*
X116788089Y-129510464D01*
X116729340Y-129479077D01*
X116648022Y-129434679D01*
X116547031Y-129378911D01*
X116429261Y-129313413D01*
X116297608Y-129239826D01*
X116154966Y-129159790D01*
X116004231Y-129074945D01*
X115848297Y-128986931D01*
X115690060Y-128897390D01*
X115532414Y-128807961D01*
X115378255Y-128720284D01*
X115230477Y-128636000D01*
X115091976Y-128556749D01*
X114965647Y-128484172D01*
X114854384Y-128419908D01*
X114761082Y-128365599D01*
X114688637Y-128322884D01*
X114639944Y-128293403D01*
X114617898Y-128278798D01*
X114617607Y-128278543D01*
X114559248Y-128204453D01*
X114528503Y-128117728D01*
X114524803Y-128024718D01*
X114547581Y-127931773D01*
X114596268Y-127845243D01*
X114662435Y-127777568D01*
X114742793Y-127734056D01*
X114835829Y-127716332D01*
X114931100Y-127725287D01*
G37*
G36*
X128158526Y-126530863D02*
G01*
X128210730Y-126541379D01*
X128221285Y-126545784D01*
X128302989Y-126604726D01*
X128363152Y-126682847D01*
X128399524Y-126773192D01*
X128409852Y-126868802D01*
X128391885Y-126962721D01*
X128370884Y-127008110D01*
X128353452Y-127024736D01*
X128310872Y-127059326D01*
X128245628Y-127110069D01*
X128160205Y-127175151D01*
X128057088Y-127252761D01*
X127938759Y-127341088D01*
X127807705Y-127438318D01*
X127666409Y-127542640D01*
X127517356Y-127652242D01*
X127363030Y-127765312D01*
X127205915Y-127880038D01*
X127048496Y-127994607D01*
X126893258Y-128107209D01*
X126742683Y-128216030D01*
X126599258Y-128319259D01*
X126465466Y-128415084D01*
X126343792Y-128501693D01*
X126236720Y-128577273D01*
X126146735Y-128640013D01*
X126076320Y-128688101D01*
X126027960Y-128719725D01*
X126008593Y-128731079D01*
X125915812Y-128763648D01*
X125825703Y-128763317D01*
X125738846Y-128733274D01*
X125653732Y-128673467D01*
X125593124Y-128590268D01*
X125563344Y-128511498D01*
X125553745Y-128414668D01*
X125577389Y-128323164D01*
X125633683Y-128239167D01*
X125638817Y-128233639D01*
X125660622Y-128215145D01*
X125707278Y-128178915D01*
X125776263Y-128126773D01*
X125865056Y-128060547D01*
X125971136Y-127982063D01*
X126091981Y-127893146D01*
X126225070Y-127795622D01*
X126367882Y-127691318D01*
X126517895Y-127582059D01*
X126672588Y-127469673D01*
X126829439Y-127355983D01*
X126985928Y-127242817D01*
X127139532Y-127132001D01*
X127287730Y-127025361D01*
X127428002Y-126924722D01*
X127557825Y-126831911D01*
X127674679Y-126748754D01*
X127776041Y-126677077D01*
X127859391Y-126618705D01*
X127922207Y-126575466D01*
X127961968Y-126549184D01*
X127974919Y-126541781D01*
X128025931Y-126530825D01*
X128092030Y-126527265D01*
X128158526Y-126530863D01*
G37*
G36*
X128782044Y-131946754D02*
G01*
X129044500Y-131947355D01*
X129273712Y-131948361D01*
X129470044Y-131949777D01*
X129633865Y-131951608D01*
X129765539Y-131953857D01*
X129865434Y-131956531D01*
X129933916Y-131959632D01*
X129971351Y-131963165D01*
X129977523Y-131964626D01*
X130058665Y-132012553D01*
X130120422Y-132084530D01*
X130158713Y-132174272D01*
X130169766Y-132260870D01*
X130154919Y-132360860D01*
X130113098Y-132448494D01*
X130048383Y-132517484D01*
X129977523Y-132557113D01*
X129950672Y-132560846D01*
X129893036Y-132564160D01*
X129807671Y-132567061D01*
X129697639Y-132569557D01*
X129565998Y-132571652D01*
X129415807Y-132573353D01*
X129250125Y-132574665D01*
X129072012Y-132575596D01*
X128884526Y-132576150D01*
X128690726Y-132576334D01*
X128493672Y-132576154D01*
X128296422Y-132575616D01*
X128102036Y-132574727D01*
X127913573Y-132573491D01*
X127734092Y-132571916D01*
X127566651Y-132570006D01*
X127414311Y-132567769D01*
X127280130Y-132565210D01*
X127167167Y-132562336D01*
X127078482Y-132559151D01*
X127017133Y-132555664D01*
X126986179Y-132551878D01*
X126984148Y-132551200D01*
X126908073Y-132499935D01*
X126851569Y-132426649D01*
X126817403Y-132338858D01*
X126808342Y-132244076D01*
X126827154Y-132149817D01*
X126831886Y-132137768D01*
X126871756Y-132063870D01*
X126925101Y-132011135D01*
X126979223Y-131978727D01*
X126991497Y-131973042D01*
X127006064Y-131968068D01*
X127025146Y-131963758D01*
X127050963Y-131960064D01*
X127085737Y-131956939D01*
X127131688Y-131954336D01*
X127191038Y-131952207D01*
X127266008Y-131950505D01*
X127358818Y-131949182D01*
X127471690Y-131948192D01*
X127606844Y-131947485D01*
X127766502Y-131947016D01*
X127952885Y-131946736D01*
X128168213Y-131946599D01*
X128414709Y-131946557D01*
X128485977Y-131946555D01*
X128782044Y-131946754D01*
G37*
G36*
X120248630Y-127711935D02*
G01*
X120298761Y-127726910D01*
X120351075Y-127758442D01*
X120351938Y-127759047D01*
X120430377Y-127831391D01*
X120482794Y-127916423D01*
X120508275Y-128008323D01*
X120505907Y-128101271D01*
X120474778Y-128189447D01*
X120429246Y-128251910D01*
X120406984Y-128268513D01*
X120358095Y-128300281D01*
X120285460Y-128345532D01*
X120191961Y-128402584D01*
X120080479Y-128469755D01*
X119953898Y-128545362D01*
X119815098Y-128627725D01*
X119666961Y-128715161D01*
X119512369Y-128805988D01*
X119354205Y-128898524D01*
X119195350Y-128991087D01*
X119038685Y-129081996D01*
X118887093Y-129169567D01*
X118743456Y-129252120D01*
X118610656Y-129327972D01*
X118491573Y-129395442D01*
X118389091Y-129452847D01*
X118306091Y-129498505D01*
X118245455Y-129530735D01*
X118210065Y-129547854D01*
X118206291Y-129549309D01*
X118126703Y-129566184D01*
X118050284Y-129556467D01*
X117996455Y-129535749D01*
X117908620Y-129478286D01*
X117840765Y-129399801D01*
X117797692Y-129307502D01*
X117784081Y-129217080D01*
X117796290Y-129142389D01*
X117828352Y-129066109D01*
X117873419Y-129002421D01*
X117898715Y-128979713D01*
X117920852Y-128965768D01*
X117969979Y-128936280D01*
X118043648Y-128892679D01*
X118139413Y-128836394D01*
X118254826Y-128768855D01*
X118387439Y-128691494D01*
X118534807Y-128605739D01*
X118694480Y-128513020D01*
X118864012Y-128414769D01*
X119015853Y-128326923D01*
X119218879Y-128209581D01*
X119394662Y-128108099D01*
X119545374Y-128021326D01*
X119673187Y-127948109D01*
X119780272Y-127887298D01*
X119868801Y-127837742D01*
X119940947Y-127798287D01*
X119998881Y-127767783D01*
X120044775Y-127745079D01*
X120080801Y-127729022D01*
X120109131Y-127718461D01*
X120131936Y-127712245D01*
X120151389Y-127709221D01*
X120169661Y-127708239D01*
X120182853Y-127708149D01*
X120248630Y-127711935D01*
G37*
G36*
X131426553Y-128898486D02*
G01*
X131503493Y-128922338D01*
X131532695Y-128938571D01*
X131600758Y-128996218D01*
X131641162Y-129060854D01*
X131660036Y-129143097D01*
X131661735Y-129162154D01*
X131662412Y-129181345D01*
X131661321Y-129203271D01*
X131657810Y-129230121D01*
X131651222Y-129264088D01*
X131640903Y-129307360D01*
X131626200Y-129362131D01*
X131606457Y-129430589D01*
X131581021Y-129514927D01*
X131549236Y-129617335D01*
X131510448Y-129740004D01*
X131464004Y-129885125D01*
X131409247Y-130054889D01*
X131345524Y-130251486D01*
X131272181Y-130477108D01*
X131232644Y-130598578D01*
X131165323Y-130804759D01*
X131100467Y-131002233D01*
X131038914Y-131188525D01*
X130981498Y-131361157D01*
X130929055Y-131517650D01*
X130882422Y-131655529D01*
X130842434Y-131772316D01*
X130809928Y-131865534D01*
X130785738Y-131932706D01*
X130770702Y-131971353D01*
X130766686Y-131979485D01*
X130696559Y-132049792D01*
X130609365Y-132091325D01*
X130507355Y-132103264D01*
X130444736Y-132096742D01*
X130346766Y-132064659D01*
X130269035Y-132008682D01*
X130215174Y-131932907D01*
X130188814Y-131841433D01*
X130186756Y-131805586D01*
X130190669Y-131777941D01*
X130202627Y-131727561D01*
X130222959Y-131653376D01*
X130251996Y-131554315D01*
X130290067Y-131429307D01*
X130337503Y-131277281D01*
X130394632Y-131097167D01*
X130461784Y-130887894D01*
X130539290Y-130648391D01*
X130609816Y-130431712D01*
X130675811Y-130229194D01*
X130738795Y-130035542D01*
X130797964Y-129853251D01*
X130852511Y-129684821D01*
X130901633Y-129532748D01*
X130944525Y-129399529D01*
X130980381Y-129287661D01*
X131008396Y-129199643D01*
X131027766Y-129137971D01*
X131037686Y-129105143D01*
X131038812Y-129100736D01*
X131061567Y-129046850D01*
X131106168Y-128989833D01*
X131162894Y-128939132D01*
X131222022Y-128904192D01*
X131250075Y-128895464D01*
X131337587Y-128888843D01*
X131426553Y-128898486D01*
G37*
G36*
X117589807Y-129952218D02*
G01*
X117639308Y-129960208D01*
X117680662Y-129977260D01*
X117711056Y-129995835D01*
X117774610Y-130053596D01*
X117816319Y-130116535D01*
X117823090Y-130130932D01*
X117828956Y-130145788D01*
X117833970Y-130163493D01*
X117838190Y-130186436D01*
X117841671Y-130217005D01*
X117844469Y-130257590D01*
X117846640Y-130310580D01*
X117848240Y-130378363D01*
X117849324Y-130463329D01*
X117849949Y-130567868D01*
X117850170Y-130694367D01*
X117850044Y-130845216D01*
X117849625Y-131022804D01*
X117848971Y-131229520D01*
X117848137Y-131467754D01*
X117848109Y-131475615D01*
X117847242Y-131714920D01*
X117846414Y-131922586D01*
X117845555Y-132100953D01*
X117844595Y-132252361D01*
X117843465Y-132379151D01*
X117842094Y-132483663D01*
X117840414Y-132568237D01*
X117838355Y-132635214D01*
X117835846Y-132686934D01*
X117832818Y-132725738D01*
X117829202Y-132753966D01*
X117824927Y-132773958D01*
X117819924Y-132788055D01*
X117814124Y-132798597D01*
X117808466Y-132806574D01*
X117772643Y-132847188D01*
X117725689Y-132891672D01*
X117710513Y-132904440D01*
X117634138Y-132945985D01*
X117543580Y-132963746D01*
X117449892Y-132956694D01*
X117384816Y-132934784D01*
X117298526Y-132878679D01*
X117237210Y-132802087D01*
X117215728Y-132758140D01*
X117210681Y-132742732D01*
X117206310Y-132720802D01*
X117202569Y-132690010D01*
X117199410Y-132648016D01*
X117196787Y-132592478D01*
X117194652Y-132521057D01*
X117192959Y-132431412D01*
X117191660Y-132321203D01*
X117190709Y-132188089D01*
X117190058Y-132029731D01*
X117189660Y-131843788D01*
X117189468Y-131627919D01*
X117189432Y-131449497D01*
X117189432Y-130203789D01*
X117227659Y-130128966D01*
X117266247Y-130070372D01*
X117315921Y-130015412D01*
X117331176Y-130002189D01*
X117369227Y-129974587D01*
X117404218Y-129958942D01*
X117448173Y-129951933D01*
X117513116Y-129950239D01*
X117519307Y-129950234D01*
X117589807Y-129952218D01*
G37*
G36*
X128952695Y-126524887D02*
G01*
X128968719Y-126528798D01*
X128988727Y-126536843D01*
X129014502Y-126550211D01*
X129047828Y-126570095D01*
X129090487Y-126597685D01*
X129144263Y-126634173D01*
X129210941Y-126680748D01*
X129292302Y-126738603D01*
X129390131Y-126808927D01*
X129506210Y-126892913D01*
X129642324Y-126991750D01*
X129800255Y-127106630D01*
X129981788Y-127238745D01*
X130188705Y-127389284D01*
X130237726Y-127424932D01*
X130414473Y-127553788D01*
X130582425Y-127676892D01*
X130739515Y-127792693D01*
X130883674Y-127899636D01*
X131012832Y-127996168D01*
X131124923Y-128080736D01*
X131217876Y-128151786D01*
X131289624Y-128207765D01*
X131338099Y-128247120D01*
X131361230Y-128268297D01*
X131361921Y-128269155D01*
X131406786Y-128354601D01*
X131421295Y-128447916D01*
X131405857Y-128542544D01*
X131360882Y-128631932D01*
X131337377Y-128661750D01*
X131292133Y-128704785D01*
X131243507Y-128738860D01*
X131228203Y-128746477D01*
X131157726Y-128764172D01*
X131076765Y-128767292D01*
X131000866Y-128756169D01*
X130960319Y-128740770D01*
X130937748Y-128725996D01*
X130890343Y-128692980D01*
X130820662Y-128643586D01*
X130731265Y-128579677D01*
X130624712Y-128503117D01*
X130503561Y-128415768D01*
X130370373Y-128319494D01*
X130227707Y-128216157D01*
X130078123Y-128107622D01*
X129924178Y-127995752D01*
X129768435Y-127882408D01*
X129613450Y-127769456D01*
X129461785Y-127658758D01*
X129315998Y-127552176D01*
X129178649Y-127451576D01*
X129052298Y-127358818D01*
X128939503Y-127275768D01*
X128842825Y-127204288D01*
X128764822Y-127146241D01*
X128708054Y-127103490D01*
X128675081Y-127077899D01*
X128668885Y-127072662D01*
X128610390Y-127003912D01*
X128580010Y-126927673D01*
X128572709Y-126849565D01*
X128587907Y-126747215D01*
X128630751Y-126655873D01*
X128697123Y-126582645D01*
X128746013Y-126550626D01*
X128788502Y-126537389D01*
X128849020Y-126528721D01*
X128892769Y-126526756D01*
X128910692Y-126526044D01*
X128925465Y-126524701D01*
X128938872Y-126523918D01*
X128952695Y-126524887D01*
G37*
G36*
X125727269Y-128885141D02*
G01*
X125807292Y-128918965D01*
X125872106Y-128975966D01*
X125889017Y-128999965D01*
X125899879Y-129024857D01*
X125920533Y-129079483D01*
X125950105Y-129161314D01*
X125987722Y-129267820D01*
X126032511Y-129396474D01*
X126083597Y-129544746D01*
X126140107Y-129710107D01*
X126201169Y-129890028D01*
X126265907Y-130081980D01*
X126333449Y-130283435D01*
X126365377Y-130379072D01*
X126447573Y-130625786D01*
X126519539Y-130842424D01*
X126581858Y-131031125D01*
X126635112Y-131194027D01*
X126679882Y-131333267D01*
X126716751Y-131450984D01*
X126746301Y-131549317D01*
X126769114Y-131630403D01*
X126785771Y-131696381D01*
X126796856Y-131749388D01*
X126802949Y-131791564D01*
X126804634Y-131825046D01*
X126802491Y-131851973D01*
X126797104Y-131874483D01*
X126789054Y-131894714D01*
X126781882Y-131909171D01*
X126722413Y-131988278D01*
X126640866Y-132045228D01*
X126543664Y-132076370D01*
X126479540Y-132081134D01*
X126423390Y-132078631D01*
X126379009Y-132073712D01*
X126364014Y-132070216D01*
X126289702Y-132025419D01*
X126227830Y-131954807D01*
X126203135Y-131910357D01*
X126179847Y-131867124D01*
X126160129Y-131842671D01*
X126151408Y-131840707D01*
X126145668Y-131840861D01*
X126150011Y-131831722D01*
X126149875Y-131809030D01*
X126140635Y-131763904D01*
X126124647Y-131703678D01*
X126104267Y-131635683D01*
X126081849Y-131567252D01*
X126059749Y-131505717D01*
X126040323Y-131458409D01*
X126025925Y-131432662D01*
X126021064Y-131430308D01*
X126013659Y-131425990D01*
X126016032Y-131416501D01*
X126012224Y-131396991D01*
X125998437Y-131347995D01*
X125975538Y-131272232D01*
X125944395Y-131172418D01*
X125905875Y-131051272D01*
X125860843Y-130911510D01*
X125810168Y-130755849D01*
X125754717Y-130587009D01*
X125695355Y-130407705D01*
X125667543Y-130324165D01*
X125593317Y-130101300D01*
X125529341Y-129908236D01*
X125474992Y-129742580D01*
X125429647Y-129601938D01*
X125392683Y-129483918D01*
X125363477Y-129386127D01*
X125341407Y-129306172D01*
X125325850Y-129241660D01*
X125316183Y-129190198D01*
X125311783Y-129149394D01*
X125312026Y-129116854D01*
X125316291Y-129090185D01*
X125323955Y-129066995D01*
X125334394Y-129044891D01*
X125334507Y-129044675D01*
X125389654Y-128970755D01*
X125463232Y-128917300D01*
X125548512Y-128884851D01*
X125638767Y-128873950D01*
X125727269Y-128885141D01*
G37*
%LPC*%
D14*
X101335001Y-66224723D03*
D15*
X105128191Y-64034723D03*
X97541809Y-68414723D03*
D16*
X144665001Y-66624723D03*
D17*
X148458192Y-68814723D03*
X140871811Y-64434724D03*
D18*
X166330000Y-103900000D03*
D19*
X166330000Y-108280000D03*
X166330000Y-99520000D03*
D18*
X79780000Y-103800000D03*
D19*
X79780000Y-99420000D03*
X79780000Y-108180000D03*
%LPD*%
M02*
