%TF.GenerationSoftware,KiCad,Pcbnew,8.0.7-8.0.7-0~ubuntu22.04.1*%
%TF.CreationDate,2025-04-11T11:52:52+01:00*%
%TF.ProjectId,ratrace_coupler,72617472-6163-4655-9f63-6f75706c6572,rev?*%
%TF.SameCoordinates,Original*%
%TF.FileFunction,Copper,L2,Bot*%
%TF.FilePolarity,Positive*%
%FSLAX46Y46*%
G04 Gerber Fmt 4.6, Leading zero omitted, Abs format (unit mm)*
G04 Created by KiCad (PCBNEW 8.0.7-8.0.7-0~ubuntu22.04.1) date 2025-04-11 11:52:52*
%MOMM*%
%LPD*%
G01*
G04 APERTURE LIST*
G04 Aperture macros list*
%AMRotRect*
0 Rectangle, with rotation*
0 The origin of the aperture is its center*
0 $1 length*
0 $2 width*
0 $3 Rotation angle, in degrees counterclockwise*
0 Add horizontal line*
21,1,$1,$2,0,0,$3*%
G04 Aperture macros list end*
%TA.AperFunction,SMDPad,CuDef*%
%ADD10RotRect,5.080000X2.420000X300.000000*%
%TD*%
%TA.AperFunction,SMDPad,CuDef*%
%ADD11RotRect,0.950000X0.460000X300.000000*%
%TD*%
%TA.AperFunction,ComponentPad*%
%ADD12C,0.970000*%
%TD*%
%TA.AperFunction,SMDPad,CuDef*%
%ADD13RotRect,5.080000X2.420000X240.000000*%
%TD*%
%TA.AperFunction,SMDPad,CuDef*%
%ADD14RotRect,0.950000X0.460000X240.000000*%
%TD*%
%TA.AperFunction,SMDPad,CuDef*%
%ADD15R,5.080000X2.420000*%
%TD*%
%TA.AperFunction,SMDPad,CuDef*%
%ADD16R,0.950000X0.460000*%
%TD*%
G04 APERTURE END LIST*
D10*
X105128191Y-64034723D03*
X97541809Y-68414723D03*
D11*
X106623191Y-66624139D03*
X99036809Y-71004139D03*
D12*
X106848191Y-67013851D03*
X99261809Y-71393851D03*
D13*
X148458192Y-68814723D03*
X140871811Y-64434724D03*
D14*
X146963191Y-71404139D03*
X139376810Y-67024141D03*
D12*
X146738191Y-71793850D03*
X139151810Y-67413851D03*
D15*
X166330000Y-108280000D03*
X166330000Y-99520000D03*
D16*
X163340000Y-108280000D03*
X163340000Y-99520000D03*
D12*
X162890000Y-108280000D03*
X162890000Y-99520000D03*
D15*
X79780000Y-99420000D03*
X79780000Y-108180000D03*
D16*
X82770000Y-99420000D03*
X82770000Y-108180000D03*
D12*
X83220000Y-99420000D03*
X83220000Y-108180000D03*
%TA.AperFunction,Conductor*%
G36*
X123684597Y-57492693D02*
G01*
X125046010Y-57532677D01*
X125049615Y-57532837D01*
X126409212Y-57612766D01*
X126412827Y-57613032D01*
X127769524Y-57732842D01*
X127773070Y-57733208D01*
X129125703Y-57892798D01*
X129129300Y-57893277D01*
X130476594Y-58092498D01*
X130480145Y-58093076D01*
X131372050Y-58251844D01*
X131821065Y-58331773D01*
X131824639Y-58332464D01*
X132211802Y-58413175D01*
X133157921Y-58610411D01*
X133161420Y-58611194D01*
X134486030Y-58928175D01*
X134489493Y-58929057D01*
X135804250Y-59284796D01*
X135807632Y-59285764D01*
X137111396Y-59679951D01*
X137114844Y-59681050D01*
X138406363Y-60113303D01*
X138409799Y-60114509D01*
X139688115Y-60584507D01*
X139691429Y-60585781D01*
X140955459Y-61093126D01*
X140958739Y-61094499D01*
X142207289Y-61638718D01*
X142210528Y-61640186D01*
X143442606Y-62220841D01*
X143445846Y-62222427D01*
X144660270Y-62838963D01*
X144663439Y-62840631D01*
X145859263Y-63492565D01*
X145862427Y-63494351D01*
X147038551Y-64181082D01*
X147041667Y-64182963D01*
X148197155Y-64903944D01*
X148200215Y-64905917D01*
X149333990Y-65660476D01*
X149336991Y-65662537D01*
X150448153Y-66450072D01*
X150451092Y-66452220D01*
X151538694Y-67272065D01*
X151541510Y-67274253D01*
X152253596Y-67844570D01*
X152604581Y-68125678D01*
X152607389Y-68127996D01*
X153644950Y-69010213D01*
X153647688Y-69012611D01*
X154658920Y-69924923D01*
X154661587Y-69927401D01*
X155645615Y-70869017D01*
X155648208Y-70871573D01*
X156604134Y-71841636D01*
X156606651Y-71844266D01*
X157533705Y-72841993D01*
X157536144Y-72844696D01*
X158433528Y-73869230D01*
X158435886Y-73872004D01*
X159302768Y-74922394D01*
X159305044Y-74925235D01*
X160140736Y-76000645D01*
X160142928Y-76003552D01*
X160946712Y-77103063D01*
X160948817Y-77106034D01*
X161719939Y-78228611D01*
X161721956Y-78231641D01*
X162459821Y-79376419D01*
X162461748Y-79379508D01*
X163165665Y-80545416D01*
X163167501Y-80548560D01*
X163836906Y-81734663D01*
X163838648Y-81737859D01*
X164472939Y-82943088D01*
X164474587Y-82946335D01*
X165073213Y-84169648D01*
X165074765Y-84172941D01*
X165637224Y-85413304D01*
X165638679Y-85416641D01*
X166164495Y-86673013D01*
X166165851Y-86676392D01*
X166654540Y-87947611D01*
X166655797Y-87951028D01*
X167106978Y-89236103D01*
X167108133Y-89239555D01*
X167521377Y-90537271D01*
X167522431Y-90540756D01*
X167897418Y-91850099D01*
X167898368Y-91853613D01*
X168234733Y-93173318D01*
X168235581Y-93176859D01*
X168533075Y-94505936D01*
X168533818Y-94509500D01*
X168792162Y-95846718D01*
X168792800Y-95850302D01*
X169011780Y-97194545D01*
X169012312Y-97198146D01*
X169191730Y-98548191D01*
X169192157Y-98551807D01*
X169331870Y-99906587D01*
X169332190Y-99910213D01*
X169432067Y-101268473D01*
X169432281Y-101272108D01*
X169492243Y-102632738D01*
X169492350Y-102636377D01*
X169512344Y-103998180D01*
X169512344Y-104001820D01*
X169492350Y-105363622D01*
X169492243Y-105367261D01*
X169432281Y-106727891D01*
X169432067Y-106731526D01*
X169332190Y-108089786D01*
X169331870Y-108093412D01*
X169192157Y-109448192D01*
X169191730Y-109451808D01*
X169012312Y-110801853D01*
X169011780Y-110805454D01*
X168792800Y-112149697D01*
X168792162Y-112153281D01*
X168533818Y-113490499D01*
X168533075Y-113494063D01*
X168235581Y-114823140D01*
X168234733Y-114826681D01*
X167898368Y-116146386D01*
X167897418Y-116149900D01*
X167522431Y-117459243D01*
X167521377Y-117462728D01*
X167108133Y-118760444D01*
X167106978Y-118763896D01*
X166655797Y-120048971D01*
X166654540Y-120052388D01*
X166165851Y-121323607D01*
X166164495Y-121326986D01*
X165638679Y-122583358D01*
X165637224Y-122586695D01*
X165074765Y-123827058D01*
X165073213Y-123830351D01*
X164474587Y-125053664D01*
X164472939Y-125056911D01*
X163838648Y-126262140D01*
X163836906Y-126265336D01*
X163167501Y-127451439D01*
X163165665Y-127454583D01*
X162461748Y-128620491D01*
X162459821Y-128623580D01*
X161721956Y-129768358D01*
X161719939Y-129771388D01*
X160948817Y-130893965D01*
X160946712Y-130896936D01*
X160142928Y-131996447D01*
X160140736Y-131999354D01*
X159305044Y-133074764D01*
X159302768Y-133077605D01*
X158435886Y-134127995D01*
X158433528Y-134130769D01*
X157536144Y-135155303D01*
X157533705Y-135158006D01*
X156606651Y-136155733D01*
X156604134Y-136158363D01*
X155648208Y-137128426D01*
X155645615Y-137130982D01*
X154661587Y-138072598D01*
X154658920Y-138075076D01*
X153647688Y-138987388D01*
X153644950Y-138989786D01*
X152607389Y-139872003D01*
X152604581Y-139874321D01*
X151541539Y-140725723D01*
X151538664Y-140727957D01*
X150451092Y-141547779D01*
X150448153Y-141549927D01*
X149336991Y-142337462D01*
X149333990Y-142339523D01*
X148200215Y-143094082D01*
X148197155Y-143096055D01*
X147041667Y-143817036D01*
X147038551Y-143818917D01*
X145862434Y-144505644D01*
X145859263Y-144507434D01*
X144663464Y-145159355D01*
X144660243Y-145161050D01*
X143445849Y-145777570D01*
X143442579Y-145779171D01*
X142210579Y-146359790D01*
X142207263Y-146361293D01*
X140958778Y-146905483D01*
X140955419Y-146906889D01*
X139691471Y-147414202D01*
X139688073Y-147415508D01*
X138409798Y-147885490D01*
X138406363Y-147886696D01*
X137114844Y-148318949D01*
X137111376Y-148320054D01*
X135807700Y-148714215D01*
X135804200Y-148715217D01*
X134489525Y-149070933D01*
X134485997Y-149071832D01*
X133161447Y-149388799D01*
X133157894Y-149389594D01*
X131824639Y-149667535D01*
X131821065Y-149668226D01*
X130480167Y-149906919D01*
X130476573Y-149907504D01*
X129129306Y-150106721D01*
X129125697Y-150107201D01*
X127773107Y-150266787D01*
X127769486Y-150267160D01*
X126412835Y-150386966D01*
X126409204Y-150387233D01*
X125049631Y-150467161D01*
X125045994Y-150467322D01*
X123684598Y-150507306D01*
X123680958Y-150507359D01*
X122319042Y-150507359D01*
X122315402Y-150507306D01*
X120954005Y-150467322D01*
X120950368Y-150467161D01*
X119590795Y-150387233D01*
X119587164Y-150386966D01*
X118230513Y-150267160D01*
X118226892Y-150266787D01*
X116874302Y-150107201D01*
X116870693Y-150106721D01*
X115523426Y-149907504D01*
X115519832Y-149906919D01*
X114178934Y-149668226D01*
X114175360Y-149667535D01*
X112842105Y-149389594D01*
X112838552Y-149388799D01*
X111514002Y-149071832D01*
X111510474Y-149070933D01*
X110195799Y-148715217D01*
X110192322Y-148714221D01*
X109376746Y-148467636D01*
X108888623Y-148320054D01*
X108885155Y-148318949D01*
X107593636Y-147886696D01*
X107590201Y-147885490D01*
X106311926Y-147415508D01*
X106308528Y-147414202D01*
X105044580Y-146906889D01*
X105041221Y-146905483D01*
X103792736Y-146361293D01*
X103789440Y-146359799D01*
X102557420Y-145779171D01*
X102554150Y-145777570D01*
X101339756Y-145161050D01*
X101336535Y-145159355D01*
X100140736Y-144507434D01*
X100137565Y-144505644D01*
X98961448Y-143818917D01*
X98958332Y-143817036D01*
X97802844Y-143096055D01*
X97799784Y-143094082D01*
X96666009Y-142339523D01*
X96663008Y-142337462D01*
X95551846Y-141549927D01*
X95548907Y-141547779D01*
X94860704Y-141029005D01*
X94461315Y-140727941D01*
X94458480Y-140725738D01*
X93921970Y-140296042D01*
X93395418Y-139874321D01*
X93392610Y-139872003D01*
X92355049Y-138989786D01*
X92352311Y-138987388D01*
X91341079Y-138075076D01*
X91338412Y-138072598D01*
X90354384Y-137130982D01*
X90351791Y-137128426D01*
X89395865Y-136158363D01*
X89393348Y-136155733D01*
X88466294Y-135158006D01*
X88463855Y-135155303D01*
X87566471Y-134130769D01*
X87564113Y-134127995D01*
X86697231Y-133077605D01*
X86694955Y-133074764D01*
X85859263Y-131999354D01*
X85857071Y-131996447D01*
X85053287Y-130896936D01*
X85051182Y-130893965D01*
X84280060Y-129771388D01*
X84278043Y-129768358D01*
X83615608Y-128740607D01*
X83540156Y-128623545D01*
X83538273Y-128620526D01*
X82834326Y-127454569D01*
X82832498Y-127451439D01*
X82163093Y-126265336D01*
X82161351Y-126262140D01*
X82057163Y-126064170D01*
X81527045Y-125056882D01*
X81525427Y-125053694D01*
X80926784Y-123830347D01*
X80925234Y-123827058D01*
X80395060Y-122657891D01*
X80362756Y-122586652D01*
X80361338Y-122583400D01*
X79835504Y-121326986D01*
X79834148Y-121323607D01*
X79345459Y-120052388D01*
X79344202Y-120048971D01*
X78893021Y-118763896D01*
X78891866Y-118760444D01*
X78478622Y-117462728D01*
X78477568Y-117459243D01*
X78102568Y-116149853D01*
X78101644Y-116146435D01*
X77765255Y-114826635D01*
X77764429Y-114823186D01*
X77466913Y-113494013D01*
X77466191Y-113490548D01*
X77207834Y-112153265D01*
X77207199Y-112149697D01*
X76988219Y-110805454D01*
X76987687Y-110801853D01*
X76808269Y-109451808D01*
X76807842Y-109448192D01*
X76668123Y-108093349D01*
X76667814Y-108089850D01*
X76567930Y-106731507D01*
X76567718Y-106727891D01*
X76507755Y-105367240D01*
X76507649Y-105363622D01*
X76487655Y-104001770D01*
X76487655Y-103998229D01*
X76507649Y-102636354D01*
X76507756Y-102632738D01*
X76507850Y-102630619D01*
X76567719Y-101272086D01*
X76567932Y-101268473D01*
X76667815Y-99910143D01*
X76668122Y-99906656D01*
X76807846Y-98551768D01*
X76808264Y-98548232D01*
X76987688Y-97198137D01*
X76988219Y-97194545D01*
X77207199Y-95850302D01*
X77207837Y-95846718D01*
X77466194Y-94509437D01*
X77466910Y-94505999D01*
X77764432Y-93176798D01*
X77765251Y-93173380D01*
X78101648Y-91853546D01*
X78102563Y-91850163D01*
X78477580Y-90540713D01*
X78478609Y-90537313D01*
X78891879Y-89239515D01*
X78893007Y-89236143D01*
X79344206Y-87951016D01*
X79345459Y-87947611D01*
X79367275Y-87890863D01*
X79834152Y-86676381D01*
X79835504Y-86673013D01*
X79862185Y-86609263D01*
X80361349Y-85416574D01*
X80362745Y-85413372D01*
X80925247Y-84172911D01*
X80926771Y-84169678D01*
X81525441Y-82946277D01*
X81527031Y-82943144D01*
X82161363Y-81737836D01*
X82163093Y-81734663D01*
X82217771Y-81637781D01*
X82832523Y-80548516D01*
X82834308Y-80545459D01*
X83538291Y-79379442D01*
X83540137Y-79376484D01*
X84278072Y-78231596D01*
X84280030Y-78228655D01*
X85051202Y-77106004D01*
X85053266Y-77103092D01*
X85857106Y-76003505D01*
X85859226Y-76000693D01*
X86694969Y-74925217D01*
X86697231Y-74922394D01*
X87564132Y-73871981D01*
X87566451Y-73869252D01*
X88463885Y-72844661D01*
X88466262Y-72842028D01*
X89393382Y-71844230D01*
X89395830Y-71841671D01*
X90351829Y-70871535D01*
X90354346Y-70869053D01*
X91338425Y-69927388D01*
X91341079Y-69924923D01*
X91611376Y-69681067D01*
X92352354Y-69012573D01*
X92355005Y-69010251D01*
X93392631Y-68127977D01*
X93395396Y-68125695D01*
X94458522Y-67274227D01*
X94461272Y-67272090D01*
X95548939Y-66452196D01*
X95551813Y-66450095D01*
X96663026Y-65662524D01*
X96665989Y-65660489D01*
X97799812Y-64905898D01*
X97802815Y-64903962D01*
X98958364Y-64182943D01*
X98961416Y-64181100D01*
X100137602Y-63494334D01*
X100140698Y-63492585D01*
X101336588Y-62840615D01*
X101339701Y-62838977D01*
X102554180Y-62222414D01*
X102557366Y-62220854D01*
X103789496Y-61640174D01*
X103792684Y-61638729D01*
X105041284Y-61094489D01*
X105044516Y-61093136D01*
X106308593Y-60585772D01*
X106311861Y-60584515D01*
X107590221Y-60114501D01*
X107593615Y-60113310D01*
X108885176Y-59681043D01*
X108888583Y-59679957D01*
X110192385Y-59285759D01*
X110195731Y-59284801D01*
X111510523Y-58929053D01*
X111513952Y-58928179D01*
X112838593Y-58611190D01*
X112842063Y-58610414D01*
X114175362Y-58332463D01*
X114178934Y-58331773D01*
X115519864Y-58093074D01*
X115523394Y-58092500D01*
X116870708Y-57893275D01*
X116874287Y-57892799D01*
X118226936Y-57733207D01*
X118230468Y-57732843D01*
X119587177Y-57613032D01*
X119590782Y-57612766D01*
X120950387Y-57532837D01*
X120953986Y-57532677D01*
X122315402Y-57492693D01*
X122319042Y-57492641D01*
X123680958Y-57492641D01*
X123684597Y-57492693D01*
G37*
%TD.AperFunction*%
M02*
