%TF.GenerationSoftware,KiCad,Pcbnew,8.0.7-8.0.7-0~ubuntu22.04.1*%
%TF.CreationDate,2025-04-11T11:52:52+01:00*%
%TF.ProjectId,ratrace_coupler,72617472-6163-4655-9f63-6f75706c6572,rev?*%
%TF.SameCoordinates,Original*%
%TF.FileFunction,Copper,L1,Top*%
%TF.FilePolarity,Positive*%
%FSLAX46Y46*%
G04 Gerber Fmt 4.6, Leading zero omitted, Abs format (unit mm)*
G04 Created by KiCad (PCBNEW 8.0.7-8.0.7-0~ubuntu22.04.1) date 2025-04-11 11:52:52*
%MOMM*%
%LPD*%
G01*
G04 APERTURE LIST*
G04 Aperture macros list*
%AMRotRect*
0 Rectangle, with rotation*
0 The origin of the aperture is its center*
0 $1 length*
0 $2 width*
0 $3 Rotation angle, in degrees counterclockwise*
0 Add horizontal line*
21,1,$1,$2,0,0,$3*%
G04 Aperture macros list end*
%TA.AperFunction,Conductor*%
%ADD10C,3.000000*%
%TD*%
%TA.AperFunction,Conductor*%
%ADD11C,1.600000*%
%TD*%
%TA.AperFunction,SMDPad,CuDef*%
%ADD12RotRect,5.080000X2.290000X300.000000*%
%TD*%
%TA.AperFunction,SMDPad,CuDef*%
%ADD13RotRect,5.080000X2.420000X300.000000*%
%TD*%
%TA.AperFunction,SMDPad,CuDef*%
%ADD14RotRect,0.950000X0.460000X300.000000*%
%TD*%
%TA.AperFunction,ComponentPad*%
%ADD15C,0.970000*%
%TD*%
%TA.AperFunction,SMDPad,CuDef*%
%ADD16RotRect,5.080000X2.290000X240.000000*%
%TD*%
%TA.AperFunction,SMDPad,CuDef*%
%ADD17RotRect,5.080000X2.420000X240.000000*%
%TD*%
%TA.AperFunction,SMDPad,CuDef*%
%ADD18RotRect,0.950000X0.460000X240.000000*%
%TD*%
%TA.AperFunction,SMDPad,CuDef*%
%ADD19R,5.080000X2.290000*%
%TD*%
%TA.AperFunction,SMDPad,CuDef*%
%ADD20R,5.080000X2.420000*%
%TD*%
%TA.AperFunction,SMDPad,CuDef*%
%ADD21R,0.950000X0.460000*%
%TD*%
G04 APERTURE END LIST*
D10*
X131850000Y-88650000D02*
X143805001Y-68114287D01*
X114000000Y-88800000D02*
X102195000Y-67714287D01*
X140700000Y-104000000D02*
X164610000Y-103900000D01*
D11*
X140000000Y-104000000D02*
G75*
G02*
X106000000Y-104000000I-17000000J0D01*
G01*
X106000000Y-104000000D02*
G75*
G02*
X140000000Y-104000000I17000000J0D01*
G01*
D10*
X105300000Y-103900000D02*
X81500000Y-103800000D01*
D12*
X101335001Y-66224723D03*
D13*
X105128191Y-64034723D03*
X97541809Y-68414723D03*
D14*
X106623191Y-66624139D03*
X99036809Y-71004139D03*
D15*
X106848191Y-67013851D03*
X99261809Y-71393851D03*
D16*
X144665001Y-66624723D03*
D17*
X148458192Y-68814723D03*
X140871811Y-64434724D03*
D18*
X146963191Y-71404139D03*
X139376810Y-67024141D03*
D15*
X146738191Y-71793850D03*
X139151810Y-67413851D03*
D19*
X166330000Y-103900000D03*
D20*
X166330000Y-108280000D03*
X166330000Y-99520000D03*
D21*
X163340000Y-108280000D03*
X163340000Y-99520000D03*
D15*
X162890000Y-108280000D03*
X162890000Y-99520000D03*
D19*
X79780000Y-103800000D03*
D20*
X79780000Y-99420000D03*
X79780000Y-108180000D03*
D21*
X82770000Y-99420000D03*
X82770000Y-108180000D03*
D15*
X83220000Y-99420000D03*
X83220000Y-108180000D03*
M02*
