%TF.GenerationSoftware,KiCad,Pcbnew,8.0.7-8.0.7-0~ubuntu22.04.1*%
%TF.CreationDate,2025-04-11T11:53:00+01:00*%
%TF.ProjectId,ratrace_coupler,72617472-6163-4655-9f63-6f75706c6572,rev?*%
%TF.SameCoordinates,Original*%
%TF.FileFunction,Drillmap*%
%TF.FilePolarity,Positive*%
%FSLAX45Y45*%
G04 Gerber Fmt 4.5, Leading zero omitted, Abs format (unit mm)*
G04 Created by KiCad (PCBNEW 8.0.7-8.0.7-0~ubuntu22.04.1) date 2025-04-11 11:53:00*
%MOMM*%
%LPD*%
G01*
G04 APERTURE LIST*
%ADD10C,0.050000*%
%ADD11C,0.200000*%
%ADD12C,0.100000*%
G04 APERTURE END LIST*
D10*
X17001287Y-10400000D02*
G75*
G02*
X7598713Y-10400000I-4701287J0D01*
G01*
X7598713Y-10400000D02*
G75*
G02*
X17001287Y-10400000I4701287J0D01*
G01*
D11*
D12*
X8299000Y-9919000D02*
X8345000Y-9965000D01*
X8345000Y-9919000D02*
X8299000Y-9965000D01*
X8299000Y-10795000D02*
X8345000Y-10841000D01*
X8345000Y-10795000D02*
X8299000Y-10841000D01*
X9903181Y-7116385D02*
X9949181Y-7162385D01*
X9949181Y-7116385D02*
X9903181Y-7162385D01*
X10661819Y-6678385D02*
X10707819Y-6724385D01*
X10707819Y-6678385D02*
X10661819Y-6724385D01*
X13892181Y-6718385D02*
X13938181Y-6764385D01*
X13938181Y-6718385D02*
X13892181Y-6764385D01*
X14650819Y-7156385D02*
X14696819Y-7202385D01*
X14696819Y-7156385D02*
X14650819Y-7202385D01*
X16266000Y-9929000D02*
X16312000Y-9975000D01*
X16312000Y-9929000D02*
X16266000Y-9975000D01*
X16266000Y-10805000D02*
X16312000Y-10851000D01*
X16312000Y-10805000D02*
X16266000Y-10851000D01*
D11*
X7856990Y-15415271D02*
X7856990Y-15215271D01*
X7856990Y-15215271D02*
X7904609Y-15215271D01*
X7904609Y-15215271D02*
X7933180Y-15224795D01*
X7933180Y-15224795D02*
X7952228Y-15243842D01*
X7952228Y-15243842D02*
X7961752Y-15262890D01*
X7961752Y-15262890D02*
X7971275Y-15300985D01*
X7971275Y-15300985D02*
X7971275Y-15329557D01*
X7971275Y-15329557D02*
X7961752Y-15367652D01*
X7961752Y-15367652D02*
X7952228Y-15386699D01*
X7952228Y-15386699D02*
X7933180Y-15405747D01*
X7933180Y-15405747D02*
X7904609Y-15415271D01*
X7904609Y-15415271D02*
X7856990Y-15415271D01*
X8056990Y-15415271D02*
X8056990Y-15281937D01*
X8056990Y-15320033D02*
X8066513Y-15300985D01*
X8066513Y-15300985D02*
X8076037Y-15291461D01*
X8076037Y-15291461D02*
X8095085Y-15281937D01*
X8095085Y-15281937D02*
X8114133Y-15281937D01*
X8180799Y-15415271D02*
X8180799Y-15281937D01*
X8180799Y-15215271D02*
X8171275Y-15224795D01*
X8171275Y-15224795D02*
X8180799Y-15234318D01*
X8180799Y-15234318D02*
X8190323Y-15224795D01*
X8190323Y-15224795D02*
X8180799Y-15215271D01*
X8180799Y-15215271D02*
X8180799Y-15234318D01*
X8304609Y-15415271D02*
X8285561Y-15405747D01*
X8285561Y-15405747D02*
X8276037Y-15386699D01*
X8276037Y-15386699D02*
X8276037Y-15215271D01*
X8409371Y-15415271D02*
X8390323Y-15405747D01*
X8390323Y-15405747D02*
X8380799Y-15386699D01*
X8380799Y-15386699D02*
X8380799Y-15215271D01*
X8637942Y-15415271D02*
X8637942Y-15215271D01*
X8637942Y-15215271D02*
X8704609Y-15358128D01*
X8704609Y-15358128D02*
X8771275Y-15215271D01*
X8771275Y-15215271D02*
X8771275Y-15415271D01*
X8952228Y-15415271D02*
X8952228Y-15310509D01*
X8952228Y-15310509D02*
X8942704Y-15291461D01*
X8942704Y-15291461D02*
X8923656Y-15281937D01*
X8923656Y-15281937D02*
X8885561Y-15281937D01*
X8885561Y-15281937D02*
X8866514Y-15291461D01*
X8952228Y-15405747D02*
X8933180Y-15415271D01*
X8933180Y-15415271D02*
X8885561Y-15415271D01*
X8885561Y-15415271D02*
X8866514Y-15405747D01*
X8866514Y-15405747D02*
X8856990Y-15386699D01*
X8856990Y-15386699D02*
X8856990Y-15367652D01*
X8856990Y-15367652D02*
X8866514Y-15348604D01*
X8866514Y-15348604D02*
X8885561Y-15339080D01*
X8885561Y-15339080D02*
X8933180Y-15339080D01*
X8933180Y-15339080D02*
X8952228Y-15329557D01*
X9047466Y-15281937D02*
X9047466Y-15481937D01*
X9047466Y-15291461D02*
X9066514Y-15281937D01*
X9066514Y-15281937D02*
X9104609Y-15281937D01*
X9104609Y-15281937D02*
X9123656Y-15291461D01*
X9123656Y-15291461D02*
X9133180Y-15300985D01*
X9133180Y-15300985D02*
X9142704Y-15320033D01*
X9142704Y-15320033D02*
X9142704Y-15377176D01*
X9142704Y-15377176D02*
X9133180Y-15396223D01*
X9133180Y-15396223D02*
X9123656Y-15405747D01*
X9123656Y-15405747D02*
X9104609Y-15415271D01*
X9104609Y-15415271D02*
X9066514Y-15415271D01*
X9066514Y-15415271D02*
X9047466Y-15405747D01*
X9228418Y-15396223D02*
X9237942Y-15405747D01*
X9237942Y-15405747D02*
X9228418Y-15415271D01*
X9228418Y-15415271D02*
X9218895Y-15405747D01*
X9218895Y-15405747D02*
X9228418Y-15396223D01*
X9228418Y-15396223D02*
X9228418Y-15415271D01*
X9228418Y-15291461D02*
X9237942Y-15300985D01*
X9237942Y-15300985D02*
X9228418Y-15310509D01*
X9228418Y-15310509D02*
X9218895Y-15300985D01*
X9218895Y-15300985D02*
X9228418Y-15291461D01*
X9228418Y-15291461D02*
X9228418Y-15310509D01*
D12*
X7550213Y-15720787D02*
X7596213Y-15766787D01*
X7596213Y-15720787D02*
X7550213Y-15766787D01*
D11*
X7895085Y-15635271D02*
X7914133Y-15635271D01*
X7914133Y-15635271D02*
X7933180Y-15644795D01*
X7933180Y-15644795D02*
X7942704Y-15654318D01*
X7942704Y-15654318D02*
X7952228Y-15673366D01*
X7952228Y-15673366D02*
X7961752Y-15711461D01*
X7961752Y-15711461D02*
X7961752Y-15759080D01*
X7961752Y-15759080D02*
X7952228Y-15797176D01*
X7952228Y-15797176D02*
X7942704Y-15816223D01*
X7942704Y-15816223D02*
X7933180Y-15825747D01*
X7933180Y-15825747D02*
X7914133Y-15835271D01*
X7914133Y-15835271D02*
X7895085Y-15835271D01*
X7895085Y-15835271D02*
X7876037Y-15825747D01*
X7876037Y-15825747D02*
X7866513Y-15816223D01*
X7866513Y-15816223D02*
X7856990Y-15797176D01*
X7856990Y-15797176D02*
X7847466Y-15759080D01*
X7847466Y-15759080D02*
X7847466Y-15711461D01*
X7847466Y-15711461D02*
X7856990Y-15673366D01*
X7856990Y-15673366D02*
X7866513Y-15654318D01*
X7866513Y-15654318D02*
X7876037Y-15644795D01*
X7876037Y-15644795D02*
X7895085Y-15635271D01*
X8047466Y-15816223D02*
X8056990Y-15825747D01*
X8056990Y-15825747D02*
X8047466Y-15835271D01*
X8047466Y-15835271D02*
X8037942Y-15825747D01*
X8037942Y-15825747D02*
X8047466Y-15816223D01*
X8047466Y-15816223D02*
X8047466Y-15835271D01*
X8228418Y-15701937D02*
X8228418Y-15835271D01*
X8180799Y-15625747D02*
X8133180Y-15768604D01*
X8133180Y-15768604D02*
X8256990Y-15768604D01*
X8418895Y-15635271D02*
X8380799Y-15635271D01*
X8380799Y-15635271D02*
X8361752Y-15644795D01*
X8361752Y-15644795D02*
X8352228Y-15654318D01*
X8352228Y-15654318D02*
X8333180Y-15682890D01*
X8333180Y-15682890D02*
X8323656Y-15720985D01*
X8323656Y-15720985D02*
X8323656Y-15797176D01*
X8323656Y-15797176D02*
X8333180Y-15816223D01*
X8333180Y-15816223D02*
X8342704Y-15825747D01*
X8342704Y-15825747D02*
X8361752Y-15835271D01*
X8361752Y-15835271D02*
X8399847Y-15835271D01*
X8399847Y-15835271D02*
X8418895Y-15825747D01*
X8418895Y-15825747D02*
X8428418Y-15816223D01*
X8428418Y-15816223D02*
X8437942Y-15797176D01*
X8437942Y-15797176D02*
X8437942Y-15749557D01*
X8437942Y-15749557D02*
X8428418Y-15730509D01*
X8428418Y-15730509D02*
X8418895Y-15720985D01*
X8418895Y-15720985D02*
X8399847Y-15711461D01*
X8399847Y-15711461D02*
X8361752Y-15711461D01*
X8361752Y-15711461D02*
X8342704Y-15720985D01*
X8342704Y-15720985D02*
X8333180Y-15730509D01*
X8333180Y-15730509D02*
X8323656Y-15749557D01*
X8561752Y-15635271D02*
X8580799Y-15635271D01*
X8580799Y-15635271D02*
X8599847Y-15644795D01*
X8599847Y-15644795D02*
X8609371Y-15654318D01*
X8609371Y-15654318D02*
X8618895Y-15673366D01*
X8618895Y-15673366D02*
X8628418Y-15711461D01*
X8628418Y-15711461D02*
X8628418Y-15759080D01*
X8628418Y-15759080D02*
X8618895Y-15797176D01*
X8618895Y-15797176D02*
X8609371Y-15816223D01*
X8609371Y-15816223D02*
X8599847Y-15825747D01*
X8599847Y-15825747D02*
X8580799Y-15835271D01*
X8580799Y-15835271D02*
X8561752Y-15835271D01*
X8561752Y-15835271D02*
X8542704Y-15825747D01*
X8542704Y-15825747D02*
X8533180Y-15816223D01*
X8533180Y-15816223D02*
X8523656Y-15797176D01*
X8523656Y-15797176D02*
X8514133Y-15759080D01*
X8514133Y-15759080D02*
X8514133Y-15711461D01*
X8514133Y-15711461D02*
X8523656Y-15673366D01*
X8523656Y-15673366D02*
X8533180Y-15654318D01*
X8533180Y-15654318D02*
X8542704Y-15644795D01*
X8542704Y-15644795D02*
X8561752Y-15635271D01*
X8714133Y-15835271D02*
X8714133Y-15701937D01*
X8714133Y-15720985D02*
X8723656Y-15711461D01*
X8723656Y-15711461D02*
X8742704Y-15701937D01*
X8742704Y-15701937D02*
X8771276Y-15701937D01*
X8771276Y-15701937D02*
X8790323Y-15711461D01*
X8790323Y-15711461D02*
X8799847Y-15730509D01*
X8799847Y-15730509D02*
X8799847Y-15835271D01*
X8799847Y-15730509D02*
X8809371Y-15711461D01*
X8809371Y-15711461D02*
X8828418Y-15701937D01*
X8828418Y-15701937D02*
X8856990Y-15701937D01*
X8856990Y-15701937D02*
X8876037Y-15711461D01*
X8876037Y-15711461D02*
X8885561Y-15730509D01*
X8885561Y-15730509D02*
X8885561Y-15835271D01*
X8980799Y-15835271D02*
X8980799Y-15701937D01*
X8980799Y-15720985D02*
X8990323Y-15711461D01*
X8990323Y-15711461D02*
X9009371Y-15701937D01*
X9009371Y-15701937D02*
X9037942Y-15701937D01*
X9037942Y-15701937D02*
X9056990Y-15711461D01*
X9056990Y-15711461D02*
X9066514Y-15730509D01*
X9066514Y-15730509D02*
X9066514Y-15835271D01*
X9066514Y-15730509D02*
X9076037Y-15711461D01*
X9076037Y-15711461D02*
X9095085Y-15701937D01*
X9095085Y-15701937D02*
X9123656Y-15701937D01*
X9123656Y-15701937D02*
X9142704Y-15711461D01*
X9142704Y-15711461D02*
X9152228Y-15730509D01*
X9152228Y-15730509D02*
X9152228Y-15835271D01*
X9542704Y-15625747D02*
X9371276Y-15882890D01*
X9799847Y-15635271D02*
X9818895Y-15635271D01*
X9818895Y-15635271D02*
X9837942Y-15644795D01*
X9837942Y-15644795D02*
X9847466Y-15654318D01*
X9847466Y-15654318D02*
X9856990Y-15673366D01*
X9856990Y-15673366D02*
X9866514Y-15711461D01*
X9866514Y-15711461D02*
X9866514Y-15759080D01*
X9866514Y-15759080D02*
X9856990Y-15797176D01*
X9856990Y-15797176D02*
X9847466Y-15816223D01*
X9847466Y-15816223D02*
X9837942Y-15825747D01*
X9837942Y-15825747D02*
X9818895Y-15835271D01*
X9818895Y-15835271D02*
X9799847Y-15835271D01*
X9799847Y-15835271D02*
X9780799Y-15825747D01*
X9780799Y-15825747D02*
X9771276Y-15816223D01*
X9771276Y-15816223D02*
X9761752Y-15797176D01*
X9761752Y-15797176D02*
X9752228Y-15759080D01*
X9752228Y-15759080D02*
X9752228Y-15711461D01*
X9752228Y-15711461D02*
X9761752Y-15673366D01*
X9761752Y-15673366D02*
X9771276Y-15654318D01*
X9771276Y-15654318D02*
X9780799Y-15644795D01*
X9780799Y-15644795D02*
X9799847Y-15635271D01*
X9952228Y-15816223D02*
X9961752Y-15825747D01*
X9961752Y-15825747D02*
X9952228Y-15835271D01*
X9952228Y-15835271D02*
X9942704Y-15825747D01*
X9942704Y-15825747D02*
X9952228Y-15816223D01*
X9952228Y-15816223D02*
X9952228Y-15835271D01*
X10085561Y-15635271D02*
X10104609Y-15635271D01*
X10104609Y-15635271D02*
X10123657Y-15644795D01*
X10123657Y-15644795D02*
X10133180Y-15654318D01*
X10133180Y-15654318D02*
X10142704Y-15673366D01*
X10142704Y-15673366D02*
X10152228Y-15711461D01*
X10152228Y-15711461D02*
X10152228Y-15759080D01*
X10152228Y-15759080D02*
X10142704Y-15797176D01*
X10142704Y-15797176D02*
X10133180Y-15816223D01*
X10133180Y-15816223D02*
X10123657Y-15825747D01*
X10123657Y-15825747D02*
X10104609Y-15835271D01*
X10104609Y-15835271D02*
X10085561Y-15835271D01*
X10085561Y-15835271D02*
X10066514Y-15825747D01*
X10066514Y-15825747D02*
X10056990Y-15816223D01*
X10056990Y-15816223D02*
X10047466Y-15797176D01*
X10047466Y-15797176D02*
X10037942Y-15759080D01*
X10037942Y-15759080D02*
X10037942Y-15711461D01*
X10037942Y-15711461D02*
X10047466Y-15673366D01*
X10047466Y-15673366D02*
X10056990Y-15654318D01*
X10056990Y-15654318D02*
X10066514Y-15644795D01*
X10066514Y-15644795D02*
X10085561Y-15635271D01*
X10342704Y-15835271D02*
X10228419Y-15835271D01*
X10285561Y-15835271D02*
X10285561Y-15635271D01*
X10285561Y-15635271D02*
X10266514Y-15663842D01*
X10266514Y-15663842D02*
X10247466Y-15682890D01*
X10247466Y-15682890D02*
X10228419Y-15692414D01*
X10456990Y-15720985D02*
X10437942Y-15711461D01*
X10437942Y-15711461D02*
X10428419Y-15701937D01*
X10428419Y-15701937D02*
X10418895Y-15682890D01*
X10418895Y-15682890D02*
X10418895Y-15673366D01*
X10418895Y-15673366D02*
X10428419Y-15654318D01*
X10428419Y-15654318D02*
X10437942Y-15644795D01*
X10437942Y-15644795D02*
X10456990Y-15635271D01*
X10456990Y-15635271D02*
X10495085Y-15635271D01*
X10495085Y-15635271D02*
X10514133Y-15644795D01*
X10514133Y-15644795D02*
X10523657Y-15654318D01*
X10523657Y-15654318D02*
X10533180Y-15673366D01*
X10533180Y-15673366D02*
X10533180Y-15682890D01*
X10533180Y-15682890D02*
X10523657Y-15701937D01*
X10523657Y-15701937D02*
X10514133Y-15711461D01*
X10514133Y-15711461D02*
X10495085Y-15720985D01*
X10495085Y-15720985D02*
X10456990Y-15720985D01*
X10456990Y-15720985D02*
X10437942Y-15730509D01*
X10437942Y-15730509D02*
X10428419Y-15740033D01*
X10428419Y-15740033D02*
X10418895Y-15759080D01*
X10418895Y-15759080D02*
X10418895Y-15797176D01*
X10418895Y-15797176D02*
X10428419Y-15816223D01*
X10428419Y-15816223D02*
X10437942Y-15825747D01*
X10437942Y-15825747D02*
X10456990Y-15835271D01*
X10456990Y-15835271D02*
X10495085Y-15835271D01*
X10495085Y-15835271D02*
X10514133Y-15825747D01*
X10514133Y-15825747D02*
X10523657Y-15816223D01*
X10523657Y-15816223D02*
X10533180Y-15797176D01*
X10533180Y-15797176D02*
X10533180Y-15759080D01*
X10533180Y-15759080D02*
X10523657Y-15740033D01*
X10523657Y-15740033D02*
X10514133Y-15730509D01*
X10514133Y-15730509D02*
X10495085Y-15720985D01*
X10723657Y-15835271D02*
X10609371Y-15835271D01*
X10666514Y-15835271D02*
X10666514Y-15635271D01*
X10666514Y-15635271D02*
X10647466Y-15663842D01*
X10647466Y-15663842D02*
X10628419Y-15682890D01*
X10628419Y-15682890D02*
X10609371Y-15692414D01*
X10799847Y-15635271D02*
X10799847Y-15673366D01*
X10876038Y-15635271D02*
X10876038Y-15673366D01*
X11171276Y-15911461D02*
X11161752Y-15901937D01*
X11161752Y-15901937D02*
X11142704Y-15873366D01*
X11142704Y-15873366D02*
X11133181Y-15854318D01*
X11133181Y-15854318D02*
X11123657Y-15825747D01*
X11123657Y-15825747D02*
X11114133Y-15778128D01*
X11114133Y-15778128D02*
X11114133Y-15740033D01*
X11114133Y-15740033D02*
X11123657Y-15692414D01*
X11123657Y-15692414D02*
X11133181Y-15663842D01*
X11133181Y-15663842D02*
X11142704Y-15644795D01*
X11142704Y-15644795D02*
X11161752Y-15616223D01*
X11161752Y-15616223D02*
X11171276Y-15606699D01*
X11276038Y-15720985D02*
X11256990Y-15711461D01*
X11256990Y-15711461D02*
X11247466Y-15701937D01*
X11247466Y-15701937D02*
X11237942Y-15682890D01*
X11237942Y-15682890D02*
X11237942Y-15673366D01*
X11237942Y-15673366D02*
X11247466Y-15654318D01*
X11247466Y-15654318D02*
X11256990Y-15644795D01*
X11256990Y-15644795D02*
X11276038Y-15635271D01*
X11276038Y-15635271D02*
X11314133Y-15635271D01*
X11314133Y-15635271D02*
X11333180Y-15644795D01*
X11333180Y-15644795D02*
X11342704Y-15654318D01*
X11342704Y-15654318D02*
X11352228Y-15673366D01*
X11352228Y-15673366D02*
X11352228Y-15682890D01*
X11352228Y-15682890D02*
X11342704Y-15701937D01*
X11342704Y-15701937D02*
X11333180Y-15711461D01*
X11333180Y-15711461D02*
X11314133Y-15720985D01*
X11314133Y-15720985D02*
X11276038Y-15720985D01*
X11276038Y-15720985D02*
X11256990Y-15730509D01*
X11256990Y-15730509D02*
X11247466Y-15740033D01*
X11247466Y-15740033D02*
X11237942Y-15759080D01*
X11237942Y-15759080D02*
X11237942Y-15797176D01*
X11237942Y-15797176D02*
X11247466Y-15816223D01*
X11247466Y-15816223D02*
X11256990Y-15825747D01*
X11256990Y-15825747D02*
X11276038Y-15835271D01*
X11276038Y-15835271D02*
X11314133Y-15835271D01*
X11314133Y-15835271D02*
X11333180Y-15825747D01*
X11333180Y-15825747D02*
X11342704Y-15816223D01*
X11342704Y-15816223D02*
X11352228Y-15797176D01*
X11352228Y-15797176D02*
X11352228Y-15759080D01*
X11352228Y-15759080D02*
X11342704Y-15740033D01*
X11342704Y-15740033D02*
X11333180Y-15730509D01*
X11333180Y-15730509D02*
X11314133Y-15720985D01*
X11590323Y-15835271D02*
X11590323Y-15635271D01*
X11676038Y-15835271D02*
X11676038Y-15730509D01*
X11676038Y-15730509D02*
X11666514Y-15711461D01*
X11666514Y-15711461D02*
X11647466Y-15701937D01*
X11647466Y-15701937D02*
X11618895Y-15701937D01*
X11618895Y-15701937D02*
X11599847Y-15711461D01*
X11599847Y-15711461D02*
X11590323Y-15720985D01*
X11799847Y-15835271D02*
X11780800Y-15825747D01*
X11780800Y-15825747D02*
X11771276Y-15816223D01*
X11771276Y-15816223D02*
X11761752Y-15797176D01*
X11761752Y-15797176D02*
X11761752Y-15740033D01*
X11761752Y-15740033D02*
X11771276Y-15720985D01*
X11771276Y-15720985D02*
X11780800Y-15711461D01*
X11780800Y-15711461D02*
X11799847Y-15701937D01*
X11799847Y-15701937D02*
X11828419Y-15701937D01*
X11828419Y-15701937D02*
X11847466Y-15711461D01*
X11847466Y-15711461D02*
X11856990Y-15720985D01*
X11856990Y-15720985D02*
X11866514Y-15740033D01*
X11866514Y-15740033D02*
X11866514Y-15797176D01*
X11866514Y-15797176D02*
X11856990Y-15816223D01*
X11856990Y-15816223D02*
X11847466Y-15825747D01*
X11847466Y-15825747D02*
X11828419Y-15835271D01*
X11828419Y-15835271D02*
X11799847Y-15835271D01*
X11980800Y-15835271D02*
X11961752Y-15825747D01*
X11961752Y-15825747D02*
X11952228Y-15806699D01*
X11952228Y-15806699D02*
X11952228Y-15635271D01*
X12133181Y-15825747D02*
X12114133Y-15835271D01*
X12114133Y-15835271D02*
X12076038Y-15835271D01*
X12076038Y-15835271D02*
X12056990Y-15825747D01*
X12056990Y-15825747D02*
X12047466Y-15806699D01*
X12047466Y-15806699D02*
X12047466Y-15730509D01*
X12047466Y-15730509D02*
X12056990Y-15711461D01*
X12056990Y-15711461D02*
X12076038Y-15701937D01*
X12076038Y-15701937D02*
X12114133Y-15701937D01*
X12114133Y-15701937D02*
X12133181Y-15711461D01*
X12133181Y-15711461D02*
X12142704Y-15730509D01*
X12142704Y-15730509D02*
X12142704Y-15749557D01*
X12142704Y-15749557D02*
X12047466Y-15768604D01*
X12218895Y-15825747D02*
X12237942Y-15835271D01*
X12237942Y-15835271D02*
X12276038Y-15835271D01*
X12276038Y-15835271D02*
X12295085Y-15825747D01*
X12295085Y-15825747D02*
X12304609Y-15806699D01*
X12304609Y-15806699D02*
X12304609Y-15797176D01*
X12304609Y-15797176D02*
X12295085Y-15778128D01*
X12295085Y-15778128D02*
X12276038Y-15768604D01*
X12276038Y-15768604D02*
X12247466Y-15768604D01*
X12247466Y-15768604D02*
X12228419Y-15759080D01*
X12228419Y-15759080D02*
X12218895Y-15740033D01*
X12218895Y-15740033D02*
X12218895Y-15730509D01*
X12218895Y-15730509D02*
X12228419Y-15711461D01*
X12228419Y-15711461D02*
X12247466Y-15701937D01*
X12247466Y-15701937D02*
X12276038Y-15701937D01*
X12276038Y-15701937D02*
X12295085Y-15711461D01*
X12371276Y-15911461D02*
X12380800Y-15901937D01*
X12380800Y-15901937D02*
X12399847Y-15873366D01*
X12399847Y-15873366D02*
X12409371Y-15854318D01*
X12409371Y-15854318D02*
X12418895Y-15825747D01*
X12418895Y-15825747D02*
X12428419Y-15778128D01*
X12428419Y-15778128D02*
X12428419Y-15740033D01*
X12428419Y-15740033D02*
X12418895Y-15692414D01*
X12418895Y-15692414D02*
X12409371Y-15663842D01*
X12409371Y-15663842D02*
X12399847Y-15644795D01*
X12399847Y-15644795D02*
X12380800Y-15616223D01*
X12380800Y-15616223D02*
X12371276Y-15606699D01*
M02*
